<svg id="Layer_1" data-name="Layer 1" xmlns="http://www.w3.org/2000/svg" xmlns:xlink="http://www.w3.org/1999/xlink" viewBox="0 0 93 58.5"><defs><style>.cls-1{fill:none;}.cls-2{clip-path:url(#clip-path);}.cls-3{fill:#ee4650;}</style><clipPath id="clip-path"><rect class="cls-1" x="-740.25" y="121.02" width="720.93" height="432.79"/></clipPath></defs><title>airplane icon (where to go)</title><g class="cls-2"><image width="3497" height="2292" transform="translate(-840.06 -25.08) scale(0.33 0.33)" xlink:href="../../ICONS/shutterstock_554631007.jpg"/></g><path class="cls-3" d="M62.92,29.4,49.14,45.82l-4.23.36-2-2.86,1.86-.42,1.39.59,2.89-7.71.8-2.18c-19.13,5.6-31.49,7.91-31.49,7.91L9.81,30.13l3.35-1.25,11.43,5.78c4.88-2.09,10.76-4.59,15.05-6.39,2.44-1,4.36-1.81,5.3-2.17l4.68-1.76c8-3,22.14-8.24,24.07-8.87,2.44-.79,8.51-.35,8.51-.35a3.47,3.47,0,0,1,3,.76C86.92,17.68,86.63,21.09,62.92,29.4Z"/><path class="cls-3" d="M49.23,22.77l-4.68,1.75c-.94.36-2.86,1.15-5.3,2.17L27.61,22.58l-1.8-3.88,1.05-.26,3.24,2.4Z"/></svg>