<svg id="Layer_1" data-name="Layer 1" xmlns="http://www.w3.org/2000/svg" xmlns:xlink="http://www.w3.org/1999/xlink" viewBox="0 0 76.78 86"><defs><style>.cls-1{fill:none;}.cls-2{clip-path:url(#clip-path);}.cls-3{clip-path:url(#clip-path-2);}.cls-4{clip-path:url(#clip-path-3);}.cls-5{clip-path:url(#clip-path-4);}.cls-6{clip-path:url(#clip-path-5);}.cls-7{clip-path:url(#clip-path-6);}.cls-8{clip-path:url(#clip-path-7);}.cls-9{clip-path:url(#clip-path-8);}.cls-10{fill:#ee4650;}</style><clipPath id="clip-path"><rect class="cls-1" x="450.99" y="1228.44" width="84.67" height="48"/></clipPath><clipPath id="clip-path-2"><rect class="cls-1" x="75.8" y="1211.12" width="607.71" height="88.66"/></clipPath><clipPath id="clip-path-3"><rect class="cls-1" x="-14.5" y="948.21" width="2374.06" height="551.26"/></clipPath><clipPath id="clip-path-4"><rect class="cls-1" x="-14.5" y="937.63" width="2374.06" height="561.84"/></clipPath><clipPath id="clip-path-5"><rect class="cls-1" x="228.39" y="1228.44" width="84.67" height="48"/></clipPath><clipPath id="clip-path-6"><rect class="cls-1" x="-26.04" y="1214.36" width="607.71" height="88.66"/></clipPath><clipPath id="clip-path-7"><rect class="cls-1" x="-116.34" y="951.45" width="2374.06" height="551.26"/></clipPath><clipPath id="clip-path-8"><rect class="cls-1" x="-116.34" y="940.87" width="2374.06" height="561.84"/></clipPath><image id="image" width="8001" height="5610" xlink:href="../../solid visa thanks page-03.jpg"/></defs><title>family visa icon</title><g class="cls-2"><g class="cls-3"><g class="cls-4"><g class="cls-5"><use transform="translate(-14.5 -376.6) scale(0.3 0.33)" xlink:href="#image"/></g></g></g></g><g class="cls-6"><g class="cls-7"><g class="cls-8"><g class="cls-9"><use transform="translate(-116.34 -373.36) scale(0.3 0.33)" xlink:href="#image"/></g></g></g></g><circle class="cls-10" cx="50.17" cy="13.93" r="6.39"/><circle class="cls-10" cx="26.65" cy="13.93" r="6.39"/><rect class="cls-10" x="38.21" y="61.72" width="1.24" height="11.47"/><path class="cls-10" d="M57.14,21.36H43.2a6.68,6.68,0,0,0-5.77,3.31,5.7,5.7,0,0,0-5.18-3.31H21.06a5.72,5.72,0,0,0-5.38,3.76L9.4,42.39a2.68,2.68,0,0,0,1.43,3.4,2.64,2.64,0,0,0,3.5-1.53l5.36-14.74h.93v1.62l-8.51,23.4h8.51V70.17a3,3,0,0,0,3,3h9.58v-21l-6.54-6.54a2.15,2.15,0,0,1,3-3l5.05,5h8.11l5-5a2.15,2.15,0,0,1,3,0h0a2.15,2.15,0,0,1,0,3L44.42,52.2v21H54a3,3,0,0,0,3-3V29.52h1.52v14.6a2.64,2.64,0,0,0,2.64,2.64h0a2.64,2.64,0,0,0,2.63-2.64V28A6.68,6.68,0,0,0,57.14,21.36ZM38.83,46.94A5.21,5.21,0,1,1,44,41.73,5.22,5.22,0,0,1,38.83,46.94Z"/></svg>