<svg id="Layer_1" data-name="Layer 1" xmlns="http://www.w3.org/2000/svg" viewBox="0 0 169.08 181.44"><defs><style>.cls-1{fill:#ee4650;}.cls-2{opacity:0.16;}.cls-3{fill:#fff;}.cls-4{opacity:0.14;}.cls-5{opacity:0.24;}.cls-6{opacity:0.21;}.cls-7{opacity:0.17;}.cls-8{opacity:0.14;}.cls-9{opacity:0.1;}.cls-10{opacity:0.07;}.cls-11{opacity:0.23;}.cls-12{opacity:0.19;}.cls-13{opacity:0.16;}.cls-14{opacity:0.12;}.cls-15{opacity:0.09;}.cls-16{opacity:0.05;}.cls-17{fill:#f2f2f2;}.cls-18{fill:#d3d3d3;}</style></defs><title>from our consultant icon</title><polygon class="cls-1" points="103.53 0.44 110.7 14.98 119.4 13.42 116.45 31.36 130.74 24.11 131.83 31.08 146.64 28.84 141.29 42.94 149.21 46.84 124.4 63.24 126.49 71.35 105.86 67.67 107.06 92.64 104.82 92.67 102.58 92.7 103.06 67.7 82.54 71.98 84.4 63.81 59.14 48.13 66.94 44 61.19 30.06 76.06 31.88 76.95 24.87 91.44 31.71 87.98 13.87 96.72 15.18 103.47 0.44 103.53 0.44"/><rect class="cls-2" x="33.12" y="44.16" width="91.74" height="123.47" transform="translate(-35.08 39.25) rotate(-22.99)"/><rect class="cls-3" x="33.97" y="42.66" width="91.74" height="123.47" transform="translate(-34.43 39.47) rotate(-22.99)"/><rect class="cls-4" x="32.88" y="46.24" width="91.74" height="123.47" transform="translate(-20.81 18.82) rotate(-12.05)"/><rect class="cls-3" x="33.76" y="45.22" width="91.74" height="123.47" transform="translate(-20.57 18.98) rotate(-12.05)"/><rect class="cls-5" x="69.28" y="55.25" width="36.82" height="5" transform="translate(-10.07 19.45) rotate(-11.97)"/><rect class="cls-6" x="71.01" y="63.41" width="36.82" height="5" transform="translate(-11.73 19.99) rotate(-11.97)"/><rect class="cls-7" x="72.74" y="71.57" width="36.82" height="5" transform="translate(-13.38 20.52) rotate(-11.97)"/><rect class="cls-8" x="74.48" y="79.74" width="36.82" height="5" transform="translate(-15.04 21.06) rotate(-11.97)"/><rect class="cls-9" x="76.21" y="87.9" width="36.82" height="5" transform="translate(-16.7 21.6) rotate(-11.97)"/><rect class="cls-10" x="77.94" y="96.06" width="36.82" height="5" transform="translate(-18.35 22.13) rotate(-11.97)"/><rect class="cls-11" x="46.36" y="109.3" width="70.41" height="5" transform="translate(-21.87 19.86) rotate(-12.26)"/><rect class="cls-12" x="48.13" y="117.46" width="70.41" height="5" transform="translate(-23.56 20.43) rotate(-12.26)"/><rect class="cls-13" x="49.91" y="125.61" width="70.41" height="5" transform="translate(-25.26 20.99) rotate(-12.26)"/><rect class="cls-14" x="51.68" y="133.77" width="70.41" height="5" transform="translate(-26.95 21.55) rotate(-12.26)"/><rect class="cls-15" x="53.45" y="141.92" width="70.41" height="5" transform="translate(-28.64 22.11) rotate(-12.26)"/><rect class="cls-16" x="55.22" y="150.08" width="70.41" height="5" transform="translate(-30.33 22.67) rotate(-12.26)"/><path class="cls-1" d="M58.22,128.18v15.07H49.67V128.18Zm-5.56,1.39-.87,3.65v0l0,.05s-.09.11-.12.34l.06.12H51.7v-.08h0L51,136.5h0s0-.1,0-.3h0l0,0-.07.26.07.12v.13H51.1v-.08H51l-.17.81v0h.06c.05-.29.1-.43.17-.43h.06l0,.13v0c-.11,0-.17,0-.17.13v.38l-.05.09v-.26c-.06,0-.09,0-.09-.08h0l-.17.76.08.09v0l0,0-.08-.08-.23,1.1h0l0,.35.09,0,0,0h.07l0,.12v0l-.09,0h0l-.06.09v.55h.09v0l0,0h0l0,0,0,.12,0,.26v.55h.35l0,0v0l.09,0,.18,0h.37l.14,0,.09,0h.14l.15,0,.09,0h0l.17-.89-.06-.12v-.09h.06c.07-.18.21-.83.43-1.95q1.16-5.67,1.15-6.16h0c.18,1.15.45,2.62.84,4.41v0H53.18L52.74,139H55a18.2,18.2,0,0,1,.55,2.54h2.09l-2.87-12ZM50.49,141c0,.05,0,.09-.11.13V141Zm.2-1.53v.09l-.11.08h0l-.06-.08a.08.08,0,0,0,.09-.09Zm.06.13h0l0,0,0,.12-.09,0v.1h-.11c0-.09,0-.14.11-.14Zm.15-1.66,0,.13-.15-.08v-.05Zm.08.9.14-.05v.09A.07.07,0,0,0,51,139H51v-.17Zm0,1.86h.11l.07.09v.05c-.06,0-.09,0-.09.08l-.15-.08v-.05Zm.23-2.5v.08h-.12v-.08Zm.17,2.17v0l0,.13v.16l.26.3,0-.38v0l.06-.09h.05v.13h-.05v0l.05.26c0,.08,0,.12-.08.12l.05.31h-.08c0-.18-.07-.26-.12-.26V141h-.14a.2.2,0,0,0-.11.17h-.06l0-.13.21-.12-.06-.26.06-.33ZM51.3,136v.08l0,0-.05-.08v0Zm.29-.59v.16c-.08,0-.12.12-.12.35h-.11c0-.12,0-.18.08-.18v0l0,0c.08,0,.12-.09.12-.25Zm-.18,1.95v0l0,.09v0Zm.06,1.27,0,0v0l.09,0v0h-.2v-.08Zm.12-.29v0h0l-.09-.09v0l0,0Zm0,1.65v.17H51.5l0-.12V140Zm.14-5.35v0l-.14,0v-.08Zm.12,2.46a.5.5,0,0,1,.17.26l-.05.17h-.06v-.26c-.05,0-.1-.06-.15-.17Zm0,.85,0,.13h0l0,0v-.17Zm.2,2c.08,0,.12.11.12.25v0l-.06.09h0a.53.53,0,0,0-.11-.3C52,140,52,140,52,139.9Zm.12-3.32H52v0l0,0Zm0-3.32.09.1v0l-.11,0v-.1Z"/><path class="cls-1" d="M65.71,128.21v15.07H58.17V128.21Zm-7,1.41v.73h.18v0l0,0v.09l.06.13v0l-.1-.08h0l-.06.08v3.2l.09,0,.06.08V134h-.15v2.34l.06.1h0l.07-.43,0-.05c.09,0,.14-.09.14-.17h0v.13l-.06.13v.25l.06.14-.06.12c-.17,0-.26,0-.26.09v4.27h.06l0-.21v-.14l.14,0v-.13l.06.08v0c-.08,0-.17.24-.29.72v.09l.09.13h.38l.11,0,.12,0h.14c.23,0,.35,0,.35-.13h.17c0,.09,0,.13.06.13h.12s.05,0,.05-.13h0l.12.13h.06l.06-.08v-4.79l-.15,0c-.05.23-.09.34-.12.34h-.05q0-.21-.09-.21v-.21h.14a.81.81,0,0,0,.15-.51h.09v0l0,0h.06v-.38l-.12-.17v0l0-.05h0l0,.05h0v-5.73l-.09,0c0-.14,0-.22-.06-.22H60.4l-.08.09h0v-.05l.05-.12v0h-.72l0,0,0,0h-.75Zm.18,1.76v.12l-.07.08,0-.2Zm.11-1.21h.2v.14l0,0-.26,0Zm.29,1.76q0,.3.12.3l.06.25c-.14,0-.21.09-.21.26s.11.22.21.22v0h-.15c-.12-.35-.25-.52-.4-.52v-.08h.11c.1,0,.15,0,.15.13h.05l.06-.09v-.21l0,0h0l0,0V132Zm-.2-.73.06.22v0h0l-.15-.08v0l0-.05v0l0,0Zm-.06,9.06h.06v.12H59v0Zm.09-3.46h0v0l-.06.08h0v0Zm.06-7.14h0v.09l-.05.09h-.06Zm0,11.54h.11v0a.25.25,0,0,1-.14.17l0-.13Zm.11-2.86c0,.09.07.18.21.25v0l-.24.09-.08-.09.08-.29Zm0-1.16.15.3v.13l-.12-.13h0l0,0a.55.55,0,0,0-.06-.29v0Zm0,.51v.05h-.06v-.13Zm.06.43h.06s0,.09-.12.13h0Zm0-4.87.2.26h-.14l-.09-.21v-.05Zm.09-1.62,0,0,0,0h0l.08.13v0h-.08l-.15,0v-.13l0,0,0,0Zm.09,9.14.08.08h.26l.06.09c-.06,0-.13.05-.23.17h0c0-.1-.07-.18-.2-.26Zm.17-2.91V138h-.17v-.09Zm0-5.46.06.08v.09l-.09,0v-.08l0-.05,0,0v0Zm.12,3.58,0,.22v0l0,.12.15,0v0c0,.06-.06.1-.17.14l-.06-.14V136Zm0,3.46c0,.09,0,.13.11.13l-.06.09h0l-.06-.09v-.13Zm.11-.89h-.08v-.05l0,0Zm.23-2.82-.08.13-.15-.05,0,.05v-.13l0,0Zm.15,4.31a.21.21,0,0,1,.11.17s-.05.06-.05.17h0l0,0h0c0,.06-.05.11-.14.17l-.15-.08v-.05s.06,0,.06-.12l.17,0C60.2,140.3,60.23,140.21,60.23,140Zm-.2-2,0,0a.31.31,0,0,1-.12.26v-.09L60,138Zm.31.63v.14l-.05.08h0c-.19-.06-.29-.11-.29-.17h.23Zm-.17-2.09-.09.17v.05h.06v0h0l-.11-.17v-.09Zm.06-.93V136h-.15v0l0,0a.08.08,0,0,0,.09-.09v-.12l0,0Zm-.12,2.17.06.08V138h0l-.06-.09v-.13Zm.18,3,0,.18-.06.17h0v-.26Zm.08-1.11.09.08v.05l0,0-.09,0v-.13Zm0,1.2v0l-.06.09v0Zm.12-7.43.06.08h-.09v-.08Zm.37-3.89v2l.06.09h.26l.12-.13h.06v0l0,0v0l.15,0,.2-.13v0l0,0,.3,0c.11,0,.17,0,.17.09.57,0,.91.47,1,1.41v.21a1.71,1.71,0,0,1-.87,1.71l0,.13v0h-.08a.35.35,0,0,0-.26-.13H61l-.06.09v.81l.06.09-.06.12v1.07l.06.08h.67q2,0,2.64-.93l0-.14,0-.12h0v.08h0l.21-.25,0-.13v0h0a4.83,4.83,0,0,0,.53-2.39v-.17a5.89,5.89,0,0,0-.53-2.44l0,0v0l0,0a2.51,2.51,0,0,0-2.37-1.32H61Zm.06,6q0-.08.18-.18v0l.08,0,.09.13,0,.09c0,.19,0,.29.17.29V136l0,0a.39.39,0,0,1-.26-.38H61Zm.52-.1c0-.11.06-.16.09-.16h.06l0,0c0,.11.06.17.08.17v.05l0,0Zm.09-3.66v0h.06v-.13Zm.12-.43v0l0,0-.06-.08Zm0,4.7v.12h-.06v-.12Zm.09.3v0l-.07.08v-.12Zm.14-.14v0H61.8v0Zm.15-6.92v0l.2-.21h-.15Zm.17,6.25.06.21-.12,0-.06-.17v-.08Zm1.24-3.42,0,.17v0l0,0h0l0-.25Zm.55.34v0l0,0,0-.08Zm.29.94.09.08v.09h0v-.09h-.17v-.08Zm.06-3.12h.09v-.08h0c0,.08,0,.12,0,.12h.06v-.12c-.06,0-.08,0-.08-.09h-.06Z"/><path class="cls-1" d="M73.19,128.21v15.07H65.65V128.21Zm-7,1.41v.73h.18v0l0,0v.09l.05.13v0l-.09-.08h0l-.06.08v3.2l.09,0,.06.08V134h-.15v2.34l.06.1h0l.07-.43,0-.05c.09,0,.14-.09.14-.17h0v.13l-.06.13v.25l.06.14-.06.12c-.17,0-.26,0-.26.09v4.27h.06l0-.21v-.14l.14,0v-.13l.06.08v0c-.08,0-.17.24-.29.72v.09l.09.13h.38l.11,0,.12,0h.14c.23,0,.35,0,.35-.13h.17c0,.09,0,.13.06.13h.12s0,0,0-.13h0l.12.13H68l0-.08v-4.79l-.14,0c0,.23-.09.34-.12.34h0q0-.21-.09-.21v-.21h.14a.81.81,0,0,0,.15-.51h.09v0l0,0h0v-.38l-.11-.17v0l0-.05h0l0,.05h0v-5.73l-.08,0c0-.14,0-.22-.06-.22h-.06l-.08.09h0v-.05l0-.12v0H67.1l0,0,0,0h-.75Zm.18,1.76v.12l-.07.08,0-.2Zm.11-1.21h.2v.14l0,0-.27,0Zm.29,1.76q0,.3.12.3l0,.25c-.13,0-.2.09-.2.26s.11.22.2.22v0h-.14c-.12-.35-.25-.52-.41-.52v-.08h.12c.1,0,.15,0,.15.13h0l.06-.09v-.21l0,0h0l0,0V132Zm-.21-.73.07.22v0h0l-.15-.08v0l0-.05v0l0,0Zm0,9.06h0v.12h-.11v0Zm.09-3.46h0v0l-.07.08h0v0Zm.06-7.14h0v.09l0,.09H66.6Zm0,11.54h.11v0a.25.25,0,0,1-.14.17l0-.13Zm.11-2.86c0,.09.07.18.2.25v0l-.23.09-.08-.09.08-.29Zm0-1.16.15.3v.13l-.12-.13h0l0,0a.55.55,0,0,0-.06-.29v0Zm0,.51v.05h-.06v-.13Zm.06.43h.06s0,.09-.12.13h0Zm0-4.87.2.26h-.14l-.09-.21v-.05Zm.09-1.62,0,0,0,0h0l.09.13v0H67l-.14,0v-.13l0,0,0,0Zm.08,9.14.09.08h.26l.06.09c-.06,0-.14.05-.23.17h0c0-.1-.07-.18-.2-.26Zm.18-2.91V138H67v-.09Zm0-5.46.06.08v.09l-.09,0v-.08l0-.05,0,0v0Zm.12,3.58,0,.22v0l0,.12.15,0v0c0,.06-.06.1-.17.14l-.06-.14V136Zm0,3.46c0,.09,0,.13.11.13l-.06.09h0l-.06-.09v-.13Zm.11-.89h-.08v-.05l0,0Zm.23-2.82-.08.13-.15-.05,0,.05v-.13l0,0Zm.15,4.31a.21.21,0,0,1,.11.17s0,.06,0,.17h0l0,0h0c0,.06-.05.11-.15.17l-.14-.08v-.05s.06,0,.06-.12l.17,0C67.68,140.3,67.71,140.21,67.71,140Zm-.2-2,0,0a.3.3,0,0,1-.11.26v-.09l.06-.21Zm.31.63v.14l0,.08h0c-.19-.06-.29-.11-.29-.17h.23Zm-.17-2.09-.09.17v.05h.06v0h0l-.11-.17v-.09Zm.06-.93V136h-.15v0l0,0a.08.08,0,0,0,.09-.09v-.12l0,0Zm-.12,2.17.06.08V138h0l-.06-.09v-.13Zm.18,3,0,.18-.06.17h0v-.26Zm.08-1.11.09.08v.05l0,0-.09,0v-.13Zm0,1.2v0l-.06.09v0Zm.12-7.43.06.08H68v-.08Zm.37-3.89v2l.06.09h.26l.12-.13h.06v0l0,0v0l.15,0,.19-.13v0l0,0,.3,0c.11,0,.17,0,.17.09.56,0,.91.47,1,1.41v.21a1.71,1.71,0,0,1-.87,1.71l0,.13v0H69.8a.35.35,0,0,0-.26-.13H68.43l-.06.09v.81l.06.09-.06.12v1.07l.06.08h.67q2,0,2.64-.93l0-.14,0-.12h.05v.08h0l.21-.25,0-.13v0h0a4.83,4.83,0,0,0,.53-2.39v-.17a5.89,5.89,0,0,0-.53-2.44l0,0v0l0,0a2.51,2.51,0,0,0-2.37-1.32H68.43Zm.06,6q0-.08.18-.18v0l.08,0,.09.13,0,.09c0,.19,0,.29.17.29V136l0,0a.39.39,0,0,1-.26-.38h-.18Zm.52-.1c0-.11.06-.16.09-.16h.06l0,0c0,.11.06.17.08.17v.05l0,0Zm.09-3.66v0h.06v-.13Zm.12-.43v0l0,0-.06-.08Zm0,4.7v.12h-.05v-.12Zm.1.3v0l-.07.08v-.12Zm.14-.14v0h-.14v0Zm.14-6.92v0l.21-.21h-.15Zm.17,6.25.07.21-.12,0-.06-.17v-.08ZM71,132.23l0,.17v0l0,0h0l0-.25Zm.55.34v0l0,0,0-.08Zm.29.94.09.08v.09h0v-.09h-.17v-.08Zm.06-3.12H72v-.08h0c0,.08,0,.12,0,.12h.06v-.12c-.06,0-.08,0-.08-.09H72Z"/><path class="cls-1" d="M81,128.21v15.07H73.13V128.21Zm-5.82,1.35H73.77l-.06.09v11.83l.06.08h.46v-.12h.06v.12h.92s.06,0,.06-.12h.06v.12h.17l.06-.08v-5.19l0,0,0-.05v-1.41l0,0h0l0-.12,0-.17v-4.81l-.06-.09h-.32l0,0Zm-1.07,10.86v.08H74v-.08Zm0,.63v0l-.06.08v-.13Zm.11-.12.06.08h-.12Zm.41-.34h.11v0c0,.05-.07.09-.2.12v0Zm0,.51v.12h0l0-.12Zm.24-5v0l-.06.22h-.15v0a.22.22,0,0,0,.18-.22Zm0,3.75V140h0l-.09-.13v0ZM75,141.1v0l-.08.17v-.13l0-.08Zm0-1.11.06.09h-.09V140Zm.17-3.57h0l0,.16H75v-.08Zm0,4.68H75v0l0,0Zm.21-2.47v.08l-.23.13v-.08c.11,0,.17,0,.17-.13Zm0-4v.08h0l-.06-.08Zm.08,3.74,0,.18h-.06l0-.18Zm.12-4v0a.29.29,0,0,1-.14.16h0v0c.07,0,.11,0,.11-.16Zm0,1.69v.09h-.11v-.09Zm0-2.89v.08h-.09v-.08Zm.38-3.53v2.09l.05.08h.9c.48,0,.72,0,.72.08.47,0,.74.41.81,1.24v.34c0,1-.57,1.49-1.71,1.49H75.9l-.05.08v1.06l0,0,.08,0h0v.09c-.1,0-.14,0-.14.09v.8l.05.09H76l.49-.05V137q.12,0,.12-.09h.05V137H76.6v.12a2,2,0,0,1,.92.18,1.43,1.43,0,0,1,.46.85,12.77,12.77,0,0,0,.32,2.26l0,.12c.17.68.29,1,.35,1h.46s.06-.07.06-.21h.26l0,0,0-.26c0-.07.14-.16.43-.26V141l-.12,0-.14,0-.09.17,0,.17v.13l-.15,0h-.06l0,0,.06.08h.49c0-.31.06-.46.12-.46v.12l-.06.34h.46l.12-.16a1.53,1.53,0,0,0-.23-.47h0l-.09.08v-.12l.09-.14c-.06-.39-.12-.59-.18-.59h-.14v0c0-.06.06-.11.17-.17l-.17-1.32h-.06v.08h-.2v0l0,0v-.08c0-.12-.09-.18-.14-.18l.11-.21.14,0h.06c0-.62-.1-.93-.17-.93l-.18,0h0l0-.18h0l0,.05h.12l0-.05c-.29-.87-.6-1.31-.93-1.31v0c.23-.06.35-.16.35-.3l0,.08a3.19,3.19,0,0,0,1-2.68,3.66,3.66,0,0,0-.81-2.59H79.2c0-.4-.58-.64-1.74-.73H75.9Zm.51,6.46c0,.09,0,.14.07.14h.25v.08h-.25l-.18-.13v0Zm0-1,.18.08-.08.18v0l0,0h-.12v-.13l0,0,0-.09v-.08Zm.32-.09v.17h-.08l0-.17Zm.23,1.24.06.08v0h-.17l-.06-.09Zm.15-.38.14,0v0l0,.08h-.06l0-.12Zm.75-.94,0,0c0,.11,0,.17.06.17l-.09.22h-.06c0-.12,0-.18-.08-.18h-.12l-.09.09a.34.34,0,0,1-.17.34h-.09l.06-.25v-.05l0,0h.09a.66.66,0,0,1,.38-.22l0,0h0l0,0,0-.12Zm.26,1.79v0l-.06.12.06.35v.12H78l-.09-.63Zm.17-1,.12.09c0,.11,0,.17.06.17v.08l-.29-.16.05-.18Zm0-1.19v.09h.23l0,.08h-.12l-.12-.17Zm.09,4.77.09.12v0l-.06.09s-.07-.09-.09-.26Zm0-1.62v.05l0,.16h0v0l0-.17Zm.17-1.27v0l-.11.08v-.08l0,0Zm0,2q0,.18.09.18v.08H78.5l-.11-.26Zm0,1.63h.09l0,0c.08.2.19.3.32.3v.12l-.26-.12a.37.37,0,0,0-.23-.26Zm.12-.51v.08h-.06l-.06-.08Zm-.09,1.1.06.08h0l-.06-.08Zm.06-5.62v.35H78.5v-.35Zm.06,4v.13h-.06v0Zm.14-5,0,.25h0l0-.12,0-.13Zm.15,3.53v.09l-.09.13h0v0Zm0,3.62H79v.13l-.15,0h0v-.09Zm0-3.15h0l-.06.09h0Zm.08.89a.31.31,0,0,0,.21-.12h0l0,0s-.06.11-.17.17l0,0h-.21v0l.07-.08Zm0,.47v.09l-.11.09h0l0-.18Zm.09-.68-.06.09H79l0-.09v0Zm.06,1.79v.43h-.12v0l.06-.14v0l0,0s0-.06,0-.17Zm0-8.42h0l-.07.08h0Zm.14,6v0l-.14,0v-.08Zm0,1.7q.21.15.21.21v.05h-.07c-.13-.12-.2-.21-.2-.26Zm0-1.27c0-.07.06-.12.14-.18h0v.08l-.11.1Zm.2-1,.15,0h.08v.34l-.17-.17h0l0,.05-.11-.13,0-.13Zm0,1.83v.09h-.11v-.09Zm0-2.38v.08l-.08,0v0Zm0,.81,0,.12c0,.09,0,.14-.06.14v-.26Zm.19,2.42,0,.09-.06-.09Zm.32.26v.09h-.11v-.09Zm.38,1.41.06.08h.14l.06-.08-.06-.09h-.14Z"/><path class="cls-1" d="M89.82,128.21v15.07H80.88V128.21Zm-4.67,1.39c-1.14,0-2.12.7-2.92,2.11a8.4,8.4,0,0,0-.71,2.76v0l0,0c-.06,0-.09.33-.09,1s0,.89.09.89l0-.12s0-.08,0-.24l.11.08,0,0,.05.17.11-.13h0l-.08.13,0,.2v.08h-.09l-.13-.12c0,.41,0,.61.11.61h.13V137H82l.17-.08v0l0-.08v0l.09,0h0l0,0h0l0,0,0,0,0,.16,0,0v0l0,0-.11-.08v0l0,0a.42.42,0,0,0-.13.33c0,.12.07.19.1.2h.12l.05-.08s.11.07.19.2h0c.06,0,.08-.05.08-.16h0l0,0,0,0v0l0,0v0l-.06.09v-.09h0l0,0-.08-.09v0l-.09,0h0l0,.24h0l0,0,0,0c-.07-.16-.16-.24-.28-.24v0l-.14,0,0-.29h0l0,0v-.09l0,0,.08-.12-.05-.08H82v.13l0-.05h0l0,.05c0-.09,0-.13-.05-.13l0,.2c-.12,0-.19.12-.19.37.17.73.29,1.09.36,1.09h0l0,.13.41.85.06-.08h0l0,0,0,.17a3.56,3.56,0,0,0,1.18,1.25c.07,0,.11,0,.11-.16h0s.08.05.08.16l.06-.07.16.07,0,.21.49.16v0h.06c0-.19-.06-.29-.12-.29v0h0l0,0,0-.2,0-.12c-.07,0-.11,0-.11-.12l0-.08h0l.09.08h0l0,0c.08-.22.15-.33.19-.33a1.21,1.21,0,0,1-.16.45l.07,0V141h-.05v.13l.11,0,.06-.08v-.16h-.06v-.08l.11-.13.11.09h0l.05-.21v-.08c-.07,0-.11,0-.11-.08l-.11,0h0l0-.2c.06,0,.09,0,.09-.08l0,.08h0l0,0v0l0-.05v-.11l0,0h0v0l0,0s0-.08-.11-.12v0l-.2-.08h0l-.11,0h0l0,.12v.08c0,.06,0,.09-.14.09v0l0,0-.11.05V140c0-.1,0-.16-.09-.16v-.08c.15,0,.25-.12.31-.37l.16.05v0l0,0v0h.06v-.12h.06l0,0v0l0-.05v-.11l-.47-.17c-.38-.37-.57-.58-.57-.64a4.4,4.4,0,0,0-.45-1l0,0c0-.24,0-.36-.14-.36v0h0v0h0l.08-.12a4.27,4.27,0,0,0-.2-1.26l-.08,0h0l0,0v0l0-.05.08.05,0-.08v-.08l0,0h0c.06,0,.09-.17.09-.49v-.08l0,0a.08.08,0,0,1-.09-.09h.09l0,0a5.2,5.2,0,0,1,.6-2.11v-.08s0,0,0,.12-.08-.08-.12-.2l.23.08.47-.52.71-.37v-.08h0s-.05,0-.05.12l-.08,0v0l.16-.17v-1.86Zm-3.52,7.88h0l.09-.13v0l-.11,0h0Zm.3.32h0l0,0a.36.36,0,0,1,.09.24v.09l-.28-.25v0l0,0Zm0-2.64v0l-.08,0v-.08Zm0,1,.06.07H81.9v-.07Zm0-.49h0l0-.05v.09l-.08,0v-.13Zm.53-.49a.56.56,0,0,0,.14.29h0l0,0v0c0,.09.07.16.2.2v-.08h0v.08h.16l0,.21v0l0,0L83,136l-.1-.11h0v.07l0,0h-.09v-.08h0l0,.12v.05h-.13l0-.05-.06-.08h0l0,0,0,0v0l0,0h-.06l0,0v0l-.16,0c0,.11-.08.19-.25.25h0s.07-.11.22-.21q0-.12.06-.12h0c0-.27-.08-.41-.22-.41v0l0,0c.08,0,.11.06.11.13a.4.4,0,0,0,.25-.13l0-.12v0Zm-.36-1.7v.08H82v-.08Zm0,1.29v.13l0,0-.06-.08v-.09Zm.08,1.59h0l-.08.13v-.05Zm.09-.2v0c0,.09,0,.13-.06.13l0-.16Zm0,3.08.05.09-.08,0h0v-.13Zm.05-4.26v0h-.08v-.08Zm.22,2.43v.13l-.08,0,0,.12h0l0-.12,0-.13Zm-.14,1.92,0,.11v.05h0l0-.05v-.11Zm.22-2.53h0l0,.09,0,.2h0l-.2-.16v0h0l.08,0Zm0,1.63h.1l0,.12-.11,0Zm.35-1.3v.21c.06,0,.14.13.25.4h0l-.1-.16h0l0,0h-.14l-.08-.21h.06v0h-.09a.29.29,0,0,0-.14.25h0l0-.17.11-.24h0l0,0v0l.12,0s0,0,0-.12Zm-.33,2.44h.08l0,.12-.08,0v0l0,0,0-.08Zm.11-.57,0,0,0,0v.08l-.06.08h0l0-.16Zm.06-4.63v.08h-.09v-.08Zm.08-2.77h0a.39.39,0,0,1-.14.21v-.12Zm0,8.21v0l0,.09h0Zm0-3.08h.06l-.11.16,0-.12Zm.12,2.92h0l0,.16h-.06l-.06-.08Zm.08.81v.09l0,0,.08,0,.14,0v0h-.14c-.09,0-.15-.06-.19-.2v0Zm0-3.82h0v.09l-.13,0v0l0,0Zm0,3.17v.13h0v-.13Zm.14-5.52-.11.16h0v-.08c.06,0,.09,0,.09-.08Zm0,5.69.16.07.08-.07V140l0,.09c-.08,0-.11,0-.11.08h0v-.08l-.08,0-.06-.08V140l0,0,0,0Zm0-.74,0,.17h0v-.17Zm.13,1.47,0,0h0v0l-.1.08h0l0-.12Zm.06-2.76V138h-.08v0Zm.08,2.47,0,.13h0l0-.13Zm-.06-1.7q.09,0,.09.24h-.06l0,0,0-.12v0Zm.34.24v0l-.25.12.13-.2Zm-.17-.69.08.08,0,.08-.06-.08v-.08Zm.17,1.38v.16h-.06a.3.3,0,0,1-.14-.28v-.16Zm.25,1.06v0h-.09l0,0v-.05Zm.16.2V141h-.11v0l0,0h-.06v0l0,0Zm.14-.25c0,.09,0,.13,0,.13v.08h-.11l0-.21Zm.11-1.42,0,.09v0l0,0-.08.08v-.08h.06v-.05l0,0Zm.24,2.12v.08h0l0,0,.08.16v0l.22,0h0l0-.12c0-.14-.05-.21-.16-.21Zm.36-.53s-.05.12-.08.36l.08,0v0l0,0v-.33Zm.34-11.13v2c0,.07.11.12.33.16a2.27,2.27,0,0,1,1,1l.33.81v0l0,0,.31.4-.14,0c0,.11,0,.16,0,.16l.08.53c.19,0,.31,0,.33.08h0l0,0,0,0h.09l.16-.08-.06.24v0l0,.05h0l0-.05h.06l0,.09q.27-.1.3-.21l.08.17h0c0,.05,0,.07.09.07v0h0l-.06-.07c-.06,0-.13.06-.21.2l-.34-.13-.1,0h-.28v-.08h0c0,.08,0,.13-.08.13h0l0,0v0h0v.2l.08.21v0h0s0,.15-.06.45v0h.08l.06-.08v-.09h0l0,.21c-.06,0-.09,0-.09.08h0l0,0v0l0,0v.24c0,.06,0,.09.1.09V137s-.07.07-.08.2l0,0h0l-.08-.08h0l0,.28c0,.09,0,.13.06.13h.14v.16h0c0-.08,0-.12-.08-.12h0l0,0,0,0h0l0,0,0,.2v.13c-.17.14-.25.24-.25.28v0h0l0,0v0l0,0v0h-.19a1.36,1.36,0,0,1-.33.53c-.3.21-.44.38-.44.49H86v0l0-.05v0l-.25.09v.11l.14,0v.16l0,0,0,0c-.15,0-.22.2-.22.49v.16l.16.32-.11.09h0l-.09-.09h-.08v.25h-.05v.57h.1c0,.05,0,.08-.08.08v.08a3.37,3.37,0,0,0,2.73-1.83,7.79,7.79,0,0,0,.94-3.49H89l0-.12v0h0l0,0h-.08v-.08l-.11.08,0-.13.09,0,.11,0,0-.2v-.16h.11c0,.11,0,.16.06.16l0-.24,0-.21,0,0-.06-.07v-.05l0,0-.06-.08H89V135l0,0-.19.12V135l0,0c.09,0,.14-.05.14-.12H89l0,0,.08-.2c0-.3,0-.45-.08-.45l0-.12L89,134l-.28.2h0l0,0h0v0h0v0l0,0c0,.1,0,.16-.08.16v.08h-.06c0-.13,0-.2.09-.2v-.13l0,0c-.13,0-.19.1-.19.17h0v-.08l0,0-.06-.2a.29.29,0,0,0-.14.29v.08l.09,0,.11,0c0,.13,0,.2.08.2l0,.13-.12,0-.11,0h0l0,0v0l0,0-.08,0c-.11-.07-.16-.13-.16-.17-.23,0-.34,0-.34-.12v-.08l.36.16v-.2h0l0,0h0l-.08-.17V134h0v.08h.15l.13-.08v-.21l0,0h0l.2.25h.38l0-.05c0-.13,0-.2.05-.2q0-.24.06-.24v.12H89c-.06-.47-.11-.7-.16-.7v.25l-.06-.08v-.08l.06-.12A5.34,5.34,0,0,0,88,131a3.28,3.28,0,0,0-2.45-1.42Zm0,10.07v0l.05.08h0l0-.2h0Zm0,.81.05-.08v-.32h-.05Zm.46.49v.09l-.08,0V141l0,0Zm0-1v.09l-.08,0V140Zm.61.41h0l0,.12h-.06v0Zm.5-1.83c0-.07,0-.11,0-.11l0,.07v.08l0,.09h0Zm.16-.32q0-.12.06-.12l0,.08v.08l0,.08h0Zm.08-3.21c0,.19.06.28.19.28l0,0v0l0,0v-.09l0,0-.19-.08Zm.19,3.42v0h-.08l0,0v-.05Zm0-1.63,0,.16h-.08l0-.12v0Zm0,.89,0,.08h0l-.06-.08Zm.11-6.83v.17h-.06c0-.08,0-.13,0-.13v0Zm.06,4.88c0,.14,0,.2.07.2h0l0,0c0,.11,0,.17.09.17v0l0,0s-.06,0-.06-.11c-.2,0-.3-.1-.3-.17v0h0l0,0s.06,0,.06-.12Zm0,1.38,0,0h0l0,0v0l0,.05-.11.07h-.08l0-.16Zm.19,1,0,.16h-.09l0,0,0,0Zm.22-2h0v.21L88,136.3h-.08l0,0v-.08l0,0h0l0,0Zm-.11.21,0,.16v0h-.08l0,0,0-.12v0Zm.14-1.67,0,.13h0v-.13Zm0-.2v0l0-.08v0Zm.22,2v.08h-.09l0-.12Zm.3-3.29h0l0,0h0v.08l-.17.08h-.1v0c.09,0,.13,0,.13-.12Zm-.06,2.89.06.07h-.14v0Zm.12-1.14h.13l0,.25,0,0h0l0,0c0-.12,0-.17-.06-.17h-.11l0,0v0l0,0Zm.27.32c0,.14,0,.21.11.21s.06,0,.06-.13h0v.17l-.08,0v0l0,0-.08,0-.08,0,0-.21ZM89,136.5v.12h-.08l0-.12Z"/><path class="cls-1" d="M98.48,128.21v15.07H89.77V128.21Zm-4.54,8.67-1.81-7.28H90.37l3,12h.6v-2h0l0,0ZM91.23,130v0l.35-.21,0-.05h0l0,.21V130l.06.13h-.23Zm.4,1.71v-.08l0,0h.06v0l-.06.08Zm.17.89,0-.13h0l.09.05Zm.14.59.06-.09h.06v.09Zm.11.75.06-.12.08,0,0,.17Zm.09.68v-.09h0l0,.09Zm.17-.43,0-.08h.1v.08Zm.21,1.64c0,.13-.08.21-.12.22v0l.06-.14v-.08c0-.09,0-.13-.12-.13v0h.15Zm-.16-1.17v0h.07c0,.06,0,.09.08.09v.08Zm.49,2.65,0-.26.09-.13v-.08l-.14,0h-.09l-.06-.22v0l.06-.08h0l.14,0,0-.21h0v.25s.06.06.06.17l0,0h0l.11,0v0c0,.05-.06.11-.17.16l0,.21v.05H93v0c-.06,0-.09,0-.09.08Zm-.19-2.12v-.08h.09v.08Zm.14,2.89V138l0-.09v.18Zm.1-3.67v-.08l.06-.09,0,0v.05l-.06.08Zm.33,1.36c-.22,0-.32-.07-.32-.12v-.05c.08,0,.12,0,.12-.16h0A.43.43,0,0,0,93.23,135.77Zm-.26,2v-.17h.09v0l0,.13ZM93,136h.08l0,0h0l0,.13Zm.31,2.93a.41.41,0,0,1-.26-.35v-.05h0c0,.14.09.2.24.2Zm.09-1.06v0s.06-.12.2-.22v.1q-.09,0-.09.12l0,0Zm.13,2.64,0-.21h.09l0,.21Zm0-.72v0l.29-.3v.17a.56.56,0,0,0-.14.39s-.06-.07-.09-.21Zm.12-1.45-.08,0v-.16h.08c0,.11.07.19.21.25v.08h0Zm-.05-.85v0h.12l0,0v0Zm.17.55V138q.12.06.12.12Zm.54,3.52h.62l3-12H96.1L94.28,137v3.67h.25l-.06.13v.08l0,.21h0l0,0-.17-.1Zm.25-2.53.06.08v0h-.06l0,0v-.08Zm.2-.81-.09.05h0l0-.14Zm.2-.67v.09h-.06l-.06-.09Zm.11-.84,0,.17L95,137l-.06-.13Zm0-.59,0,.08h0v-.08Zm.23.42v.09h-.09l0-.09Zm0-1.85s.08.08.12.22l0,.2h-.15v0a.11.11,0,0,0,.12-.12v-.09l-.06-.13Zm.11,1.25v.09c-.06,0-.08,0-.08.09h-.07v0Zm.4-2.51s0,.08.09.08v0h-.06v0l0,.21c.12.06.18.11.18.17v.05L95.9,134h0l0,.05c0,.11,0,.17,0,.17v.25h0l0-.21-.14,0h0l-.06-.08v0l.06-.21h.09l.14-.05v-.08l-.09-.12,0-.26Zm-.16,2.11v.08h-.09v-.08Zm.1-2.88v.17l-.06-.08v-.09Zm.08,3.67.06.08v0l0,0-.06-.08v-.08Zm0-1.24c0-.06.1-.1.32-.13a.46.46,0,0,0-.15.34h0c0-.11,0-.17-.12-.17ZM95.9,133l0,.12v0h-.1V133Zm.08,1.62,0,.12h0l0,.05h-.08Zm-.07-2.42c0-.13.09-.24.27-.34V132c-.15,0-.23.07-.24.2h0Zm.33,2.59,0,0q0,.12.09.12V135c-.14-.1-.2-.17-.2-.21v0Zm.14-2.64,0,.2h-.09l0-.2Zm-.06.72q0-.21.09-.21a.56.56,0,0,0,.14.39v.16l-.28-.3v0Zm.24,1.24h0v.08c-.14.06-.21.14-.21.25H96.3v-.16l.08,0Zm-.15,1v0l0,0h-.12v0ZM96.35,130c.05,0,.11,0,.17-.12h0l.08.22-.08.12h0c-.06-.11-.11-.17-.17-.17Zm.11,1.6a.39.39,0,0,0,.32-.21l0,0c0,.09-.12.18-.29.26Zm.16,3s0,.08-.12.12v-.08Zm.11-2.69h.09l-.06.1h-.09Zm.11-.76h.06l-.06.09h0Zm.15.6v0l0,.12h-.09c0-.05,0-.08.09-.08v-.08Zm.14-1.49a.38.38,0,0,1,.18.21h-.09c-.1,0-.14.07-.14.22h0c0-.09,0-.13-.09-.13v-.13l0-.05.09.05S97.13,130.3,97.13,130.19Z"/><path class="cls-1" d="M105.6,128.21v15.07H98.43V128.21Zm-5.78,1.43.06.26,0,0-.14-.09-.06.13c0,.17.07.25.11.25l-.08.39.11,0v.08c-.05,0-.1,0-.17.13h0l0-.25-.15,0h-.09l0,0,0,0,0,0c0,.12,0,.17-.15.17v0l.09.12h0l0,0c0,.06,0,.08.08.08v0l-.06.08.06.38s0,.06-.06.17h0v-.08l0-.21h-.17l-.12.12a.26.26,0,0,0,.24.3v-.09h0v0c0,.11-.09.17-.24.17v-.13h0v.17h0l0,.3v.34h.11v0a.55.55,0,0,0,.23-.34l0-.29h.14l0,0a.5.5,0,0,0,.11-.26h.06v.34c.14.21.27.31.38.31v.08l-.18.08h-.06v0l0,0-.06-.08h0v.16h-.06l-.06-.25.06-.09-.09-.13H99.5a.27.27,0,0,1-.11.26v0l0,0v.16h-.09v.22l.12-.05v-.08h-.06v0h.06l.14,0v-.09h.06v.13c0,.06,0,.09-.08.09V133l0-.05.26.09h0l0,0c0,.16.06.25.17.25v.08s-.08,0-.08.09v.25h-.15l0,0-.06.08a.37.37,0,0,0,.15.3V134c-.12,0-.2-.1-.23-.3l-.09,0v.17a.08.08,0,0,0,.09.09l0,.21v.17h.29v-.09l.11.09.06-.26h.06l0,0v-.12l.11,0,.09-.13v-.09l0,0h0l0,0,0,.25c.08,0,.12.05.12.13h0l0,0h-.17v.17h-.23c0,.14,0,.22-.11.22l0,.25-.08,0v.05a.42.42,0,0,0,.14.38h.09l.06-.09V135l0,0h0l0,0,0,.21c0,.06,0,.09-.08.09v.17l.06.08h.14s.08-.07.08-.21h0c0,.14,0,.21,0,.21h.09l.08-.08,0,0c0-.2,0-.3.11-.3v-2c0-.06,0-.08-.09-.08v-.09h.09v-.51l-.23-.13v0h0l.2,0v-1.31c-.11-.07-.17-.12-.17-.18v-.08l.06-.09s0,.09,0,.25h.06v-1.14l-.06-.08h-1Zm-.78,0,0,0,0,.3,0,.37v.47h.11a.11.11,0,0,1,.12-.12v-.3l-.18-.05.09-.16h0l0,0s.08-.08.11-.21l.12,0,.12-.08c0-.09,0-.14.08-.14v-.08l-.06-.12a.11.11,0,0,0-.11.12h0v-.12Zm0,3.65,0,.08,0-.29,0-.22h0Zm.29-.29a.44.44,0,0,1-.15.25l0,0v0l0,0v.09l.2.09v0c-.11,0-.17,0-.17.08v.22h-.06l0-.13h0l-.06-.09h0v1.66l.14.21v.05h0l0-.05h0l0,.09v.93c0,.06,0,.09.08.09v0c-.06,0-.08,0-.08.08v2.51l0,.13v.13l0,.12v0h.2l-.2.26v.76c0,.05,0,.08.11.08v0h-.06v.3q0,.09.21.09c0,.17,0,.25.08.25h.18v-.25q0-.09-.18-.09v-.3l0,0,.24,0,0-.21c0-.11-.07-.17-.21-.17l.06-.09h0l0,0,0-.25v0l.09,0h.06s.06-.1.06-.3h0v0l.05.18h.09v-.09l0,0H100l-.06.25v0l0,.05-.15-.05h0l-.05.09v.13c.07,0,.13.08.17.21a.26.26,0,0,0,.23-.26v0l.09,0,.32-.33-.07-.09.1-.26h0l.06.35v.12h-.06V140h0c0,.14-.09.21-.17.21v0c0,.17,0,.26.15.26v0h-.07l-.17-.21h-.11v.25h.11v0l-.11.26c-.1,0-.15,0-.15.13h-.14s-.07.1-.09.29l.18.05a.42.42,0,0,0,.17-.26h0l.06.09v0h0l-.12.08v.18h.17v-.09l.17-.09v.13l0,.05.09.08h.14l.17-.26v-.55l0-.21,0,0v0h-.09l0,0v-.09a.71.71,0,0,0,.11-.34v-2.81l0-.37,0-.3v-1h-.06l0,.17v0l-.17-.1v.05c-.09,0-.14,0-.14.09s.12,0,.12.08v.09l0-.05-.15.09h0l0-.21v-.22l0,0c-.09,0-.14,0-.14-.08s-.13-.21-.38-.47V135h.06q0-.21.06-.21c0-.2-.08-.3-.23-.3l-.06.13v.12l0,.05c.05,0,.08,0,.08.08v.05l-.08,0v0s-.06.08-.06.25a.2.2,0,0,1-.2-.17v0c0-.06,0-.09.14-.09v-.29l0-.09h0l0,0v0c-.14,0-.2-.16-.2-.38l0-.09h0l.09.13.09-.08-.06-.26v0l0-.05h0a.4.4,0,0,0,.09-.29h.14l.05-.09v-.13h0l-.15-.12-.14,0c0,.06,0,.08.09.08l0,.22h0C99.4,133.1,99.35,133,99.31,133ZM99,141.5v0l0,0,.06-.08v-.05l0,0Zm.23-3.1.06.08.26-.08v.08a.38.38,0,0,0-.38.29H99.1v0l.09,0h0l0-.13v0l0,0h-.06v-.08Zm0-4.17,0,0-.06.13h0l0,0,0-.13Zm.35,1.27h.11c0,.2-.07.3-.11.3h0l0,.13v0H99.5v.09h.12v-.17h.2l0-.14h0l0,.05,0-.25H100v0l0,.21h0l0,0h.08v-.1h.09l-.12.35c0,.06,0,.11.15.12s0,.22.06.22v0h-.06l0,0,0,.33h-.06l0-.2v0l0,0,0,0v0l-.11-.18H100v.14l-.06-.1v-.08l0,0-.09-.13h-.2l0,.13,0,.17H99.5v.3h0v-.09l-.29.09v0l0,0v0l.15,0v0l.17-.08,0-.22V136h-.06v-.08l.14,0v0h-.08Zm-.32,4.93a.56.56,0,0,0,.06.3v0h-.15v-.08l0-.05-.06-.08c.06,0,.09,0,.09-.13Zm0-3.7h0V137l0,0-.09,0v-.08Zm0-1.91,0,.05-.09.12v-.12l0-.05Zm0,3.11v0h0l0,0v0h0v0l0,0Zm0,1.69,0,0v.08h0l0-.08v0Zm0-2.2.15,0,.06.08v0l-.15.09-.08-.13v-.08Zm.09,1.57,0,0-.14.25v-.17Zm0-.9v0l-.09-.13v0Zm0,1.41v0l-.08,0-.06-.08Zm0,.43-.06.08-.06-.08v-.05Zm.2-8.93v.13l-.14,0h0v-.09Zm.17,5.44v.17h0v-.09l-.11.09,0,0c0,.14-.06.22-.09.22h-.06a.58.58,0,0,0,0-.3l.08,0s.06-.07.06-.21Zm-.14,1.7h0v.08h-.12v0Zm-.06,2.5,0,.05.06.25.06-.08v-.22Zm.11-9.51v.12h-.05v-.12Zm.24.34v.12h-.06v-.12Zm0-.55h0l0,.12H100v0Zm0,.29h0l0,0-.06.08h0v0Zm.06-1h0l-.09.12h0Zm.09,7.19h0v0l-.09.12H100v-.08Zm.31-7v.08c-.05,0-.09.06-.14.17s-.26.06-.26.16h-.06v-.08h.06v-.25h.09l0,0,.06.09h0v-.21Zm0,3.06v.08l-.05.08-.41.13v-.13l.21,0,.11,0c.06,0,.09-.1.09-.25Zm.21-1.79h0l0,0,0,.13h-.17l-.12.17v0c.06,0,.1,0,.1.08v.05l-.29-.13,0,0-.15,0v-.17l.09,0,.06.09h.17Zm-.43-1.7-.06.08h-.06l.06-.16Zm-.09,2.55a.82.82,0,0,1,.38.29v.05h-.1c0-.12,0-.17-.14-.17h0l0,0-.09-.13v0Zm.38,5.52v.21l-.18,0q0,.18-.06.18h0v0a.75.75,0,0,0,.08-.3v0l-.17,0V138Zm-.24-.93v.08l-.08,0h0v-.12Zm0-4.25v0l.09.21h-.06c0-.11,0-.16,0-.16v-.09Zm.15-1.79v.09h.09l.14,0v0h0l-.26.18h0v-.14h.06l0-.21Zm-.06,3.4.11.09v.08h-.11l0-.12v-.05Zm0-1.32,0,.13h-.06v-.13Zm0,3.53v.13l0-.09v0Zm0,1v.17h-.05l0-.17Zm.18,1.57v.26l-.23,0v0c.09,0,.14-.08.14-.22Zm-.09-2.12a.3.3,0,0,1,.17.26c-.09,0-.14.07-.14.21h-.08l0-.31v0Zm.06-.68c0,.11-.06.17-.08.17v-.17Zm0-6.5h0l0,0c0,.14,0,.21,0,.21l-.08.12s-.08-.11-.12-.33Zm0,2.84.06.09h-.12Zm0,8.16h.11V141s0,.09-.17.12h0v0Zm0-6.63h0l0,.13v0h-.06l-.06-.08Zm.08,4.09v0h0a.62.62,0,0,0,.11.29h-.08c0-.11,0-.17-.09-.17v-.12l0,0Zm.41-8.72v.17h.06V130h-.06v1.31l0,0,0,0v.34l.06.08h1.06l.09-.08.08.08h1.65q0-.12.06-.12v.12h.74l.07-.08v-2l-.07-.08h-1v0l0,0v0h-.06l0,0,0,0v-.12h-.72v.12l0,0h0l0,0s-.07-.06-.08-.2h-.38l0,0,0,0H102c0,.2,0,.3-.08.3h0v-.14l.06-.08-.06-.08h-.69Zm0,4.55,0,0,0,0v.13l.18.25v.05a.63.63,0,0,0-.06.34h0c0-.23,0-.34-.1-.34h0v.89l0,0,0,0v.51h.06l.06-.21,0-.12v0l0,0,0-.05.08.05h0l0-.05c.06,0,.08,0,.08.1v.21l0,0h0l0,0h0l0,.12,0,0v0h-.14v.1h.17a.13.13,0,0,0,.14-.14v0l.09,0,.06-.12h0c0,.17.07.26.11.26h.75l.23-.1.06.1h.2l.11-.05.12.05h.17l0-.05,0,.05h.2l0-.05,0,.05h.35l.2-.05v.05h.06l.06-.1.2.05,0-.3v0l0,0,0,0v-.56l0-.29h0l0,0h-.06l-.17-.17-.09.08c-.06,0-.09.06-.09.17h0l0,0c0-.08,0-.13-.09-.13s-.1-.12-.14-.38v0c.07,0,.11.05.11.17h.17v.08h.18a.46.46,0,0,0,.32.22v-.77h-.06l0,.13-.23-.09v0l0,0,.14,0h0v0l-.06-.09h-1.15l0,0,0,0h0l-.07.09-.22-.09h-.5l-.14,0-.08,0h-.09l0,0v0l-.14,0h-.24l-.14,0,0,0h0l0,0h0v.09l.15.21-.09.13h0l0,0,0,0h0l0,0c-.06-.26-.14-.39-.27-.39Zm.35,5.19v.12h0l0,0,0,0c0,.12,0,.17-.11.17s0-.12-.06-.12l-.06.42h.12v.09a.11.11,0,0,0-.12.12l-.17.22v.34h.09V141l-.07.12v.26l0,0c.07,0,.11.05.11.13h.38l0-.08v-.05h-.11V141c-.08,0-.12,0-.12-.13h.09v-.09q-.15,0-.15-.12v-.09a.58.58,0,0,0,.09-.3l0-.21.12-.08a.37.37,0,0,1,.14.21l-.06.13v0l0,0,0,0v0a.24.24,0,0,1,.18.12v.05l0,0V141l0,0h-.09v.29l.06.09c.12,0,.17-.07.17-.21h.18v.08h.14l.08.17s-.08,0-.08.09v0h.4l.06-.08v-.05l0,0h0c0-.09,0-.13-.09-.13v-.13L103,141a.51.51,0,0,0,.32.12l-.1.26.15.17h.46v-.13h.09l0,.05v-.05H104v.05l-.12,0v0H105l0-.08v-.56l0-.13,0-.12v-.05l0,0,0,0V140h0l-.12.12h0l.17-.38v-.33l0-.1h-.38v.14l0,0-.06.08c-.19-.17-.33-.26-.41-.26h-.48c0,.2.07.3.14.3v.09l-.23-.17,0,0a.26.26,0,0,0-.12-.18l-.11.1-.09-.1h-1l-.11.18h0l0,0v0l0,0v-.05H102s-.06.05-.06.14l-.12-.14h-.17Zm-.37.63h.12v-.17l-.06-.09h-.06Zm.23-9.27a.81.81,0,0,1,.26.43v0l-.09,0h0V131l-.08-.17,0,0h0l0,0v-.05Zm.08-.72h0l0,.05,0,.12-.08-.08Zm.12,1.27-.06.1h-.06v-.1Zm0,4.26h0v.08l-.15,0h0v0Zm-.12-.51s.13.08.23.25l0,.22h-.06v-.3a.08.08,0,0,1-.09-.09h-.06Zm.21-.43,0,.09v.08h0v-.08q.12,0,.12-.09h0v0l-.15.3a.4.4,0,0,1-.14-.34Zm0-3.14,0,0,0,.13h0v-.17Zm.11-1v.08l-.06.09v-.17Zm.26,4.93v.13h.06l0-.05,0,.17,0,0q-.15.06-.15.12c-.07,0-.11-.08-.11-.12l.14-.08,0-.13ZM102,141.5l.05.08h.26v0l-.11-.17h-.09Zm.2-7.27h0v.08l-.08.05v-.05Zm.06.76-.06.09h0l0-.13v0Zm0,5.36.12,0,.2.13h.06l.09-.17,0,.22c0,.14,0,.21.11.21v0l0,0-.27-.34h-.11l-.06.09-.17-.22v0Zm.07-5.7v0h-.07v-.12Zm0-.42h0v.08l-.08.05h0v-.09Zm.14-3,0,.08h-.06v-.08Zm0-.84,0,.08h-.06l0-.18Zm.12,9.09v.17h-.06v-.09Zm.32-3.4v0l-.09,0h0v-.12Zm-.09,5.14a.56.56,0,0,1,.12.34h0l.15-.08v-.09h0c0-.17-.13-.26-.23-.26Zm.15-1.06,0,.08s-.07.07-.08.22l.08,0,0,0v0l0,0v.05c-.11-.07-.17-.13-.17-.17H103v0l0,0v-.25Zm0-.68,0,0v0l-.09,0v0Zm.14-8.17v.14l-.09.12h0l0-.26Zm0,3.54h0l0-.05v.09h-.14v-.09Zm0,4.88-.06.09-.06-.09Zm.2-4.29-.06.25-.09,0v-.17Zm0,5v.21l.11.17-.05.18.11.29v0a.47.47,0,0,1-.23-.25v-.64Zm.06-6.12h.17c.08.17.17.26.26.26v.08c-.14-.09-.2-.16-.2-.21s-.09,0-.09.13c-.08-.11-.14-.17-.2-.17Zm0,5.62v0s0,0,0,.12h0V140l0,0Zm0-8.34v.17l-.05-.08v-.09Zm.06-1v.13h-.09Zm0,9.05,0,.13-.06.09v-.22Zm0,.64,0,.13v0h0l0-.13v0Zm.09-4.63q0,.12.06.12V136h0l-.09-.3v-.08Zm.06.43v.12l-.12.08v-.08s.06,0,.06-.12Zm-.09,4.16.09-.13v.17l-.12,0v-.08Zm.26-10v0l-.09.26h-.17l0-.18,0,.05a.15.15,0,0,0,.17-.17Zm-.14,4.8,0,.09,0,.08h-.06l0-.17Zm0,.26v.17h0v-.17Zm0,5.35v.26l0,.08h0l0-.21v-.13Zm.12-.12.06.08v0h-.06l0,0v-.08Zm.29,0,.17.17v.08l0,0-.09,0c0-.11,0-.17,0-.17l0,0,0,0Zm.11-5.19.06.09-.09.13,0-.22Zm.18,4.68,0,0,0,.25h0l0-.21V140Zm.37.17v.08l0,0,0,0,.15,0,0,.18,0,0,0,0-.11,0,0,.21v.13c-.06,0-.09,0-.09.08h0l.11-.25a1.07,1.07,0,0,1-.08-.43l0-.08Z"/><path class="cls-1" d="M113.19,128.21v15.07h-7.64V128.21Zm-7,1.41v.73h.18v0l0,0v.09l.06.13v0l-.09-.08h-.06l-.06.08v3.2l.09,0,.06.08V134h-.15v2.34l.06.1h.06l.06-.43,0-.05c.1,0,.14-.09.14-.17h0v.13l0,.13v.25l0,.14,0,.12q-.27,0-.27.09v4.27h.06l0-.21v-.14l.15,0v-.13l0,.08v0c-.07,0-.17.24-.29.72v.09l.09.13h.38l.11,0,.12,0H107c.24,0,.36,0,.36-.13h.17c0,.09,0,.13,0,.13h.12s.06,0,.06-.13h0l.12.13h0l.06-.08v-4.79l-.14,0c-.05.23-.09.34-.12.34h-.06c0-.14,0-.21-.08-.21v-.21h.14a.81.81,0,0,0,.15-.51H108v0l0,0H108v-.38l-.11-.17v0l0-.05h0l0,.05h0v-5.73l-.09,0c0-.14,0-.22,0-.22h-.07l-.08.09h0v-.05l.06-.12v0H107l0,0,0,0h-.76Zm.18,1.76v.12l-.06.08,0-.2Zm.11-1.21h.21v.14l0,0-.26,0Zm.29,1.76q0,.3.12.3l.06.25c-.14,0-.21.09-.21.26s.11.22.21.22v0h-.15c-.11-.35-.25-.52-.4-.52v-.08h.11c.1,0,.15,0,.15.13h.06l0-.09v-.21l0,0h0l0,0V132Zm-.2-.73.06.22v0h0l-.14-.08v0l0-.05v0l0,0Zm-.06,9.06h.06v.12h-.11v0Zm.09-3.46h0v0l-.06.08h0v0Zm.06-7.14h0v.09l-.06.09h-.06Zm0,11.54h.11v0c0,.06,0,.12-.14.17l0-.13Zm.11-2.86c0,.09.07.18.21.25v0l-.23.09-.09-.09.09-.29Zm0-1.16.15.3v.13l-.12-.13h0l0,0a.56.56,0,0,0,0-.29v0Zm0,.51v.05h0v-.13Zm.06.43h.06s0,.09-.12.13h0Zm0-4.87.21.26h-.15l-.09-.21v-.05Zm.09-1.62,0,0,0,0h0l.08.13v0h-.08l-.15,0v-.13l0,0,0,0Zm.09,9.14.08.08h.26l.06.09c-.06,0-.13.05-.23.17h0c0-.1-.07-.18-.2-.26Zm.17-2.91V138h-.17v-.09Zm0-5.46.06.08v.09l-.09,0v-.08l0-.05,0,0v0Zm.12,3.58,0,.22v0l.06.12.15,0v0c0,.06-.06.1-.18.14l-.06-.14V136Zm0,3.46c0,.09,0,.13.11.13l0,.09h0l-.06-.09v-.13Zm.11-.89h-.08v-.05l0,0Zm.24-2.82-.09.13-.15-.05,0,.05v-.13l0,0Zm.14,4.31a.22.22,0,0,1,.12.17s0,.06-.06.17h0l0,0h0c0,.06,0,.11-.15.17l-.15-.08v-.05s.06,0,.06-.12l.17,0C107.6,140.3,107.63,140.21,107.63,140Zm-.2-2,0,0a.33.33,0,0,1-.11.26v-.09l.05-.21Zm.32.63v.14l-.06.08h0c-.19-.06-.29-.11-.29-.17h.24Zm-.18-2.09-.08.17v.05h.05v0h0l-.12-.17v-.09Zm.06-.93V136h-.14v0l0,0a.08.08,0,0,0,.09-.09v-.12l0,0Zm-.11,2.17,0,.08V138h0l-.05-.09v-.13Zm.17,3,0,.18-.06.17h0v-.26Zm.09-1.11.09.08v.05l0,0-.08,0v-.13Zm0,1.2v0l0,.09v0Zm.12-7.43.06.08h-.08v-.08Zm.38-3.89v2l0,.09h.27l.11-.13h.06v0l0,0v0l.15,0,.2-.13v0l0,0,.29,0c.12,0,.17,0,.17.09q.86,0,1.05,1.41v4.37a1.7,1.7,0,0,1-.87,1.7l0,.14v0h-.09a.33.33,0,0,0-.26-.14h-1.11l0,.1v.81l0,.08,0,.12v1.07l0,.09H109c1.36,0,2.24-.31,2.64-.94l0-.13,0-.13h.06v.09h0l.2-.25,0-.14v0H112a4.81,4.81,0,0,0,.52-2.39v-4.32a5.88,5.88,0,0,0-.52-2.44l0,0v0l0,0a2.53,2.53,0,0,0-2.38-1.32h-1.25Zm0,10.18q0-.08.18-.18v0l.09,0,.09.13-.06.09c0,.2.06.29.17.29v.05l0,0a.43.43,0,0,1-.26-.39h-.18Zm.53-.09c0-.11.06-.17.09-.17h0l0,0c0,.11.06.17.09.17v.05l0,0Zm.09-7.82v0h0v-.13Zm.11-.43v0l0,0,0-.08Zm0,8.85v.12h-.06v-.12Zm.09.3v0l-.06.09v-.13Zm.14-.13v0h-.14v0Zm.15-11.08v0l.2-.21h-.14Zm.17,10.4.06.21-.12,0,0-.17v-.08Zm1.25-7.57-.06.17v0l0,0h-.06l0-.25Zm.55.34v0l0,0-.06-.08Zm.29,5.09.09.08v.1h0v-.1h-.18v-.08Zm.06-7.27h.08v-.08h0q0,.12.06.12h0v-.12s-.08,0-.08-.09h-.06Z"/><rect class="cls-17" x="40.2" y="73.43" width="28.21" height="29.84" transform="translate(-17.25 13.28) rotate(-12.05)"/><path class="cls-18" d="M47.88,98.88a7.4,7.4,0,0,0,.29.91c3.07,1.06,16-2,18.2-4.17a8.74,8.74,0,0,0-.19-1.12C65,89.81,60,87,54.94,88.19S46.73,94.19,47.88,98.88Z"/><ellipse class="cls-18" cx="54.3" cy="84.53" rx="4.63" ry="4.57"/><path d="M54.56,118.74h0l-.27,0h0l-.14,0-.3,0-.13,0,0,0h0l-.13,0-.37.07-.12,0h-.2c-.13,0-.19,0-.19.07s-.16,0-.16,0-.19,0-.22,0c-.24,0-.37,0-.37,0l0,0-.11,0h-.05l0,0h-.09l-.2,0v0h0l-.16,0H51v-.58l.18,0,.12,0,0,0h0l.07,0,0,0,.06,0,.53,0,.16,0h.28l.21,0,.25.07.16,0h0l.24.06.16-.06h.18l.2,0,.23,0h.47Zm0,8.13-.14,0v0h0a.87.87,0,0,1-.28.07l-.13,0h-.1c-.17,0-.25,0-.25-.09a.39.39,0,0,1-.29.11,5.09,5.09,0,0,0-.69,0l-.14,0h-.05a.28.28,0,0,1-.16,0l-.11,0-.1,0-.09,0h-.18a.3.3,0,0,1-.16-.07h-.14l-.07,0-.07,0-.21,0a.3.3,0,0,1-.22.1v-.52l.39-.12a1.41,1.41,0,0,0,.52.07l.17,0a1.13,1.13,0,0,0,.32.05v0l.18.07.46-.09h.12l.13,0s0,0,.07,0l0,0h0l.11,0c.27,0,.41.06.41.09H54l0,0h0s.05,0,.11,0h.07a1.51,1.51,0,0,1,.42-.1Zm-1-7.52.05,0h.24c0,.07.06.14.2.2l0,.25c-.3,0-.44.09-.44.28l-.09.29.05,0v0l-.13.24,0,.13,0,.12c0,.43.07.65.21.65l0,.29v.73l.08.16-.25.57.25,1v.28l0,.25s.13.19.4.41l-.24.45a1.39,1.39,0,0,1-.61-.25l-.53.13a1.26,1.26,0,0,0-.52-.17l-.28.17h-.25a.72.72,0,0,1-.52-.25v-.08l.4-.24.16-.38,0-.36c0-.14,0-.21.08-.21l-.08-.69,0,0v0l-.08-.49v-.57l0,0,0,0v-.08c0-.14,0-.2-.08-.2l.16-.65L51.6,121l.08-.57c0-.2-.15-.37-.44-.53l0-.29v0a10,10,0,0,1,1.41-.16l0,0,.45,0C53.39,119.41,53.54,119.39,53.54,119.35Z"/><path d="M61.5,118.68s0,0,0,0a.53.53,0,0,0-.22,0c-.24,0-.37,0-.37,0l0,0-.11,0h-.05l0,0h-.09l-.2,0v0h0l-.16,0H60l-.3-.07c-.17,0-.25.05-.25.11l-.11,0,0,0-.11,0-.1,0a.53.53,0,0,1-.22,0h-.37l-.25,0-.28,0h-.32l-.37-.05s-.09.06-.26.07l-.08,0h-.14l-.14-.05-.23.05h0c-.16,0-.23,0-.23,0l-.09,0-.07,0a.51.51,0,0,0-.34-.09l0,0h0l-.07,0-.07,0-.14,0-.29,0-.12-.07-.11,0,0,0h0l-.18,0-.16-.06h0v-.49h0l.1,0h.07a.31.31,0,0,1,.18.05l.16,0s.06,0,.18.07a.19.19,0,0,0,.14-.09h.21l.64.05.07,0,.21.05h.34l.25-.05.3,0,.1,0h.09l.14,0,.06,0h0v0l.41,0,.28.06a.42.42,0,0,1,.21-.06.39.39,0,0,0,.2.06l.55-.09.26.07.29,0,.21,0,.12,0,0,0h0l.07,0,0,0,.06,0,.53.05h.23v0l0,0h.18l.07,0Zm0,8.16h-.3l-.28,0-.11,0h-.12l-.15,0v0h-.16l-.2,0a.47.47,0,0,0-.19,0l-.16,0a.56.56,0,0,1-.32-.07l-.16,0h-.21l-.11,0-.12.07-.29,0-.14,0-.07,0h-.09l0,0a.51.51,0,0,0-.34.09l-.07,0-.09,0s-.07-.05-.23-.06l0,0-.23,0-.14,0H57l-.08,0c-.17,0-.26,0-.26-.07l-.37,0-.32,0-.28,0-.25,0h-.37a.78.78,0,0,1-.22,0l-.1,0-.11,0-.05,0-.11,0s0-.06-.08-.08v-.54l.15,0,.55.09a.37.37,0,0,0,.2,0,.54.54,0,0,1,.21,0l.28,0,.41,0v0h0l.06,0,.14,0h.09l.1,0,.3,0,.25,0,.14,0,.2,0,.21,0,.07,0,.64-.06,0,0,.12,0,.07,0a.28.28,0,0,0,.14.09c.12,0,.18-.06.18-.07l.16,0a.32.32,0,0,1,.18-.06h.07l.1,0,.15,0,.23,0,.19-.08a3.57,3.57,0,0,0,.69.08h0l0,0v0l.15,0,.1,0s.07,0,.07-.06a1.8,1.8,0,0,1,.41.09Zm-6.17-7.49.85.24.57-.16h0c.06,0,.08.09.08.28l.16.37s.07.11.09.33c.06,0,.14,0,.24.16l-.12.2v.13a.71.71,0,0,1,.2.49c.05,0,.08.12.08.37l.2.12a1.33,1.33,0,0,1,.29-.78h.08l0,0v.33l.16.45c-.16.62-.3.94-.41.94s-.08,0-.08.12l0,0v0l-.24.69,0,.69-.2.41,0,.16-.2.25c-.08.25-.14.37-.21.37h-.08a2.5,2.5,0,0,1-.4-1.06l-.41-.78,0-.16.08-.2a2.61,2.61,0,0,0-.36-.78l-.61-2c-.1-.4-.16-.61-.2-.61a.49.49,0,0,1-.49-.29v0C54.48,119.58,54.77,119.46,55.33,119.35Zm-.28,2.53h0a.32.32,0,0,1,.2.28h0a1.2,1.2,0,0,1,.21.74l-.05.16.17.16,0,.17.08.16,0,.16,0,.37q-.12,0-.12.45c.13,0,.26.21.4.53a.67.67,0,0,1,.45.28c0,.17-.14.25-.41.25l-.12.12h0l0,0,0,0h-.29l-.16-.12h-.12l-.61,0,0-.12,0,0v0l0-.17.61-.53,0-.41.12-.49-.08-1.3,0,0v0a1.1,1.1,0,0,1-.08-.45Zm4.45-2.45a.69.69,0,0,0,.41.16v0l0,0H60l0,0,.37-.12c.32,0,.48.11.48.2v.13c-.35.25-.53.43-.53.53l0,0v0l0,.12.09.45-.09.29.09.69a1.61,1.61,0,0,1-.21.53c.16.35.27.53.33.53v0c0,.05-.06.08-.16.08a6.71,6.71,0,0,0,.12,1.22l0,.53s.16.15.36.46c-.05.16-.12.26-.2.28h-.24l-.41-.08-.2,0-.33-.08h-.08a1.15,1.15,0,0,0-.56.2l-.69-.2c-.17,0-.25,0-.25-.12a1.16,1.16,0,0,1,.61-.58v-.08l0-.94.08-.85v-.17l0-.28.08-.08-.12-.45v-.2l0-.37,0-.12,0-.21,0-.24,0-.13-.16-.16a5,5,0,0,0,.08-1c0-.06.07-.1.2-.12l.25,0Zm-1.41,1.38h.08v.09l-.12.12v-.08Z"/><path d="M68.41,118.68s0,0,0,0a.53.53,0,0,0-.22,0c-.24,0-.37,0-.37,0l0,0-.11,0h0l0,0h-.09l-.2,0v0h0l-.16,0h-.14l-.3-.07c-.17,0-.25.05-.25.11l-.11,0,0,0-.11,0-.1,0a.49.49,0,0,1-.22,0h-.37l-.25,0-.28,0h-.32l-.37-.05s-.09.06-.26.07l-.08,0h-.14l-.14-.05-.23.05h-.05c-.16,0-.23,0-.23,0l-.09,0-.07,0a.51.51,0,0,0-.34-.09l0,0h0l-.07,0-.07,0-.14,0-.29,0-.12-.07-.11,0,0,0h0l-.18,0-.16-.06h0v-.49h.05l.1,0h.07a.31.31,0,0,1,.18.05l.16,0s.06,0,.18.07a.19.19,0,0,0,.14-.09h.21l.64.05.07,0,.21.05h.34l.25-.05.3,0,.1,0h.09l.14,0,.06,0h0v0l.41,0,.28.06a.42.42,0,0,1,.21-.06.39.39,0,0,0,.2.06l.55-.09.26.07.29,0,.21,0,.12,0,0,0h0l.07,0,0,0,.06,0,.53.05h.23v0l0,0h.18l.07,0Zm0,8.16h-.3l-.28,0-.11,0H67.6l-.15,0v0h-.16l-.2,0a.5.5,0,0,0-.19,0l-.16,0a.56.56,0,0,1-.32-.07l-.16,0H66l-.11,0-.12.07-.29,0-.14,0-.07,0h-.09l0,0a.51.51,0,0,0-.34.09l-.07,0-.09,0s-.07-.05-.23-.06l0,0-.23,0-.14,0H63.9l-.08,0c-.17,0-.26,0-.26-.07l-.37,0-.32,0-.29,0-.24,0H62a.78.78,0,0,1-.22,0l-.1,0-.11,0,0,0-.11,0s0-.06-.08-.08v-.54l.15,0,.55.09a.37.37,0,0,0,.2,0,.54.54,0,0,1,.21,0l.28,0,.41,0v0h0l.06,0,.14,0h.09l.1,0,.3,0,.25,0,.14,0,.2,0,.21,0,.07,0,.64-.06,0,0,.12,0,.07,0a.28.28,0,0,0,.14.09c.12,0,.18-.06.18-.07l.16,0a.32.32,0,0,1,.18-.06h.07l.1,0,.15,0,.23,0,.19-.08a3.57,3.57,0,0,0,.69.08h0l0,0v0l.15,0,.1,0s.07,0,.07-.06a1.8,1.8,0,0,1,.41.09Zm-6.17-7.49.85.24.57-.16h0c.06,0,.08.09.08.28l.16.37s.07.11.09.33c.06,0,.14,0,.24.16l-.12.2v.13a.71.71,0,0,1,.2.49c.05,0,.08.12.08.37l.2.12a1.33,1.33,0,0,1,.29-.78H65l0,0v.33l.16.45c-.16.62-.3.94-.41.94s-.08,0-.08.12l0,0v0l-.24.69,0,.69-.2.41,0,.16-.2.25c-.08.25-.14.37-.21.37h-.08a2.5,2.5,0,0,1-.4-1.06l-.41-.78,0-.16.08-.2a2.61,2.61,0,0,0-.36-.78l-.61-2c-.1-.4-.16-.61-.2-.61a.49.49,0,0,1-.49-.29v0C61.39,119.58,61.68,119.46,62.24,119.35ZM62,121.88h0a.32.32,0,0,1,.2.28h0a1.2,1.2,0,0,1,.21.74l0,.16.17.16,0,.17.08.16,0,.16,0,.37q-.12,0-.12.45c.13,0,.26.21.4.53a.67.67,0,0,1,.45.28c0,.17-.14.25-.41.25l-.12.12h0l0,0,0,0h-.29l-.16-.12H62l-.61,0,0-.12,0,0v0l0-.17.61-.53,0-.41.12-.49-.08-1.3,0,0v0A1.1,1.1,0,0,1,62,122Zm4.45-2.45a.69.69,0,0,0,.41.16v0l0,0h.08l0,0,.37-.12c.32,0,.48.11.48.2v.13c-.35.25-.53.43-.53.53l0,0v0l0,.12.09.45-.09.29.09.69a1.61,1.61,0,0,1-.21.53c.16.35.27.53.33.53v0c0,.05-.06.08-.16.08a6.71,6.71,0,0,0,.12,1.22l0,.53s.16.15.36.46c-.05.16-.12.26-.2.28h-.24l-.41-.08-.2,0-.33-.08h-.08a1.15,1.15,0,0,0-.56.2l-.69-.2c-.17,0-.25,0-.25-.12a1.12,1.12,0,0,1,.61-.58v-.08l0-.94.08-.85v-.17l0-.28.08-.08L65.4,122v-.2l0-.37,0-.12,0-.21,0-.24,0-.13-.16-.16a5,5,0,0,0,.08-1c0-.06.07-.1.2-.12l.25,0ZM65,120.81h.08v.09L65,121v-.08Z"/><path d="M71.76,118.74h0l-.26,0h0l-.14,0-.3,0-.13,0v0h0l-.13,0-.37.07-.12,0H70c-.13,0-.19,0-.19.07s-.16,0-.16,0-.19,0-.21,0c-.25,0-.37,0-.37,0l-.06,0-.1,0h-.06l0,0h-.09l-.19,0,0,0h0l-.16,0h-.18v-.58l.18,0,.13,0v0h0l.07,0,0,0,.06,0,.53,0,.16,0h.28l.21,0,.25.07.16,0h0l.25.06.16-.06h.17l.2,0,.23,0h.48Zm0,8.13-.13,0,0,0h0a.87.87,0,0,1-.28.07l-.13,0h-.1c-.17,0-.25,0-.25-.09a.37.37,0,0,1-.28.11,5.34,5.34,0,0,0-.69,0l-.15,0h0a.3.3,0,0,1-.16,0l-.1,0-.11,0-.09,0H69a.33.33,0,0,1-.16-.07h-.14l-.07,0-.07,0-.21,0a.29.29,0,0,1-.21.1v-.52l.4-.12a1.35,1.35,0,0,0,.51.07l.18,0a1.07,1.07,0,0,0,.32.05v0l.17.07.46-.09h.13l.12,0s0,0,.07,0l0,0h0l.1,0c.27,0,.41.06.41.09h.07l0,0h0s0,0,.1,0h.07a1.51,1.51,0,0,1,.42-.1Zm-1-7.52,0,0H71c0,.07.06.14.2.2l0,.25c-.29,0-.44.09-.44.28l-.09.29,0,0v0l-.13.24,0,.13,0,.12c0,.43.07.65.21.65l0,.29v.73l.08.16-.25.57.25,1v.28l0,.25s.13.19.4.41l-.24.45a1.39,1.39,0,0,1-.61-.25l-.53.13a1.26,1.26,0,0,0-.52-.17l-.28.17h-.25a.72.72,0,0,1-.52-.25v-.08l.4-.24.16-.38,0-.36c0-.14,0-.21.08-.21l-.08-.69,0,0v0l-.07-.49v-.57l0,0,0,0v-.08c0-.14,0-.2-.09-.2l.16-.65L68.8,121l.07-.57c0-.2-.14-.37-.44-.53l0-.29v0a10.21,10.21,0,0,1,1.41-.16l0,0,.45,0C70.59,119.41,70.73,119.39,70.73,119.35Z"/><path d="M77.51,126.87l-.15,0-.54.11-.44,0h-.56l-.23-.07h-.15l-.17.06h0a.6.6,0,0,1-.32-.06l-.12,0-.36,0s-.08,0-.25.06l-.16,0h-.21c-.31,0-.48,0-.51.07h-.09l-.53-.09-.11,0-.19,0-.32,0H72l-.27.07a.22.22,0,0,1-.24-.14.6.6,0,0,0,.08-.29v-.07c0-.08.08-.13.24-.13l.38.06a.21.21,0,0,1,.16-.06h.07a.09.09,0,0,1,.1.06l.5-.06.37.11.28-.09v0l.23-.05h.18l0,.05h.06l0-.05.16,0,.26,0a.6.6,0,0,0,.27.07l.09-.06.09.06.09,0,.07,0,.12,0,.28,0,.3-.08.25,0,.11,0h.28l.16,0,.13,0h0l.12,0h0l0,0,.25.06.07,0,.08,0Zm0-8.11h-.07l-.11,0-.1,0,0,0-.11,0c0-.06-.08-.09-.25-.1l-.3.07h-.14l-.16,0h0l0,0-.19,0h-.09l0,0h-.06l-.1,0-.06,0s-.12,0-.37,0c0,0-.09,0-.21,0s-.05,0-.16,0-.06,0-.19-.07h-.2l-.12,0-.37-.07-.13,0h0v0l-.13,0-.3,0-.14,0h0l-.26,0-.25-.07-.35.07-.34,0-.14,0s-.06,0-.18,0h-.12l0,0v0l0-.14v0l0-.06v-.07a.14.14,0,0,1,.14-.14,1.11,1.11,0,0,1,.38,0h0l.07,0s.18-.07.53-.09l.3.07h.41l.23,0,.2,0H74l.16.06.25-.06h0l.16,0,.25-.07.21,0h.28l.16,0,.53,0,.06,0,0,0,.07,0h0v0l.13,0,.21,0,.28,0,.27-.08.37.06Zm-3.71.59.12.12h.24v.2a1.86,1.86,0,0,0-.45.82l0,0,.08.37-.08.17.08.73,0,.17v.29l0,0-.12.37v.61l0,.57,0,.13a1.3,1.3,0,0,1,.25.86l0,.16c.2.13.31.24.32.33s-.13.33-.41.33l-1-.33c0-.06-.12-.2-.37-.41l-.36-.7,0,0a1.8,1.8,0,0,0-.41-.53v0c0-.14,0-.21.08-.21l0,0v0l0-.37-.08-.12v-.41l.08-.12v-.41a7.93,7.93,0,0,1,.41-1.27,3.09,3.09,0,0,0,.61-.78l.45-.08,0-.29A1.68,1.68,0,0,1,73.79,119.35Zm2.48,3a.58.58,0,0,1,.57.33v.16l-.17.41,0,.29a1,1,0,0,0-.12.53l0,.33,0,0v0l0,.12c0,.35-.09.53-.28.53a1.2,1.2,0,0,0-.65.37l-1,.29q-.33,0-.33-.21t.54-.45l0-.28v-.13c0-.27,0-.41-.08-.41l0,0v-.49l0,0,.08-.29c0-.28-.19-.49-.58-.61v-.08l.21-.21h.24l.65-.08.41.08H76A.28.28,0,0,0,76.27,122.3Zm.12-3c.07,0,.14.07.2.2l0,.17,0,.36,0,0v0l.16.45v.12l-.12.53,0,0v0c-.06.19-.12.29-.16.29l-.37,0c-.07-.68-.21-1-.4-1-.36-.47-.63-.7-.81-.7s-.33-.22-.33-.37h0l0,0,0,0h.08l.41,0a1.09,1.09,0,0,1,.49.2h.24l.24-.28Z"/><path d="M83.94,118.77h-.29a.19.19,0,0,0-.14-.09c-.12,0-.17,0-.17.07l-.16,0a.31.31,0,0,1-.18,0h-.07l-.11,0-.14,0-.23,0-.19.07a3.51,3.51,0,0,0-.69-.07h0l0,0,0,0-.14,0-.11,0s-.07,0-.07,0a2,2,0,0,1-.42-.09l-.28.08h-.08l-.24,0-.06,0a1,1,0,0,0-.32-.06h-.08l-.15,0h0l-.32-.06-.1,0h0l0,0-.25,0h0l-.09,0,0,0-.14,0,0,0-.07,0a.53.53,0,0,1-.25.11.48.48,0,0,0-.23-.07v0l-.14,0s-.05,0-.05,0l-.16,0c-.12,0-.19-.1-.2-.31h0c0-.15,0-.23.07-.23h0l.1,0,.2,0s.09,0,.26,0,.1,0,.11,0l0,0,.14,0a.15.15,0,0,1,.12.07h0v0h0l0,.06h0a.45.45,0,0,1,.25-.13.66.66,0,0,0,.26.09l.3,0,.13,0h.24l.34-.07h0a.52.52,0,0,1,.25.13,1,1,0,0,1,.37-.06l.36,0,.28,0,.11,0,0,0,.07,0,.14,0,0,0h.16l.19,0a.4.4,0,0,0,.2,0l.16,0a.56.56,0,0,1,.32.08l.16-.06.17,0h0l0,0,.1,0,.13-.07.28,0,.14,0,.07,0h.06Zm0,8.06h0a.54.54,0,0,1-.21,0,.37.37,0,0,0-.2,0l-.55.08-.26-.07-.29,0-.21,0-.12,0,0,0h0l-.07,0,0,0-.06,0-.53,0-.16,0h-.28l-.21,0-.25-.07-.16,0h0l-.24-.06-.16.06h-.18l-.2,0-.23,0h-.4l-.3.07q-.54,0-.54-.09l-.07,0h0a1.08,1.08,0,0,1-.37,0c-.1,0-.15-.06-.15-.14v-.08l0,0v0l0-.15v0l0,0h.12q.18,0,.18,0l.14,0,.34,0,.35.07.25-.07.27,0h0l.14,0,.3,0,.13,0,0,0h0l.13,0,.37-.07.12,0h.2c.13,0,.19,0,.19-.07s.16,0,.16,0a.53.53,0,0,0,.22,0c.24,0,.37,0,.37,0l0,0,.11,0h.05l0,0h.09l.2,0v0h0l.16,0h.14l.3.07c.17,0,.25,0,.25-.11l.11,0,0,0,.11,0,.1,0a.53.53,0,0,1,.22,0h.37l.11,0Zm-4.51-7.48h.25a.22.22,0,0,1,.24.16l0,.12.08.46,0,.24.08.12,0,0v.2a1.7,1.7,0,0,1-.16.74v0a2.46,2.46,0,0,1,.2.82l-.08.33v.45l-.17.49,0,.29,0,.17c.08,0,.15.28.21.86l0,.2.29.21v.2l-.08.08h-.53l-.29.09-.25-.09v0l-.24-.08h0l-.61.13-.2,0-.13.09c-.32,0-.48-.07-.48-.13,0-.38.1-.57.32-.57l.33-.57a1.45,1.45,0,0,0-.25-.7v0l.08-.37,0-.74,0-.33,0-.12.13-.62,0-.25,0-.24,0,0v0l0-.21,0-.16,0,0-.13-.13.09-.12v0s-.14-.14-.41-.29l-.08-.45.24-.08h.16l.17.12h0l0,0,.32.08.69-.08v0Zm1,.08.36.08h.49a.83.83,0,0,1,.73.29c.16,0,.26.1.33.29.1,0,.21.16.33.49h0l-.08,1.06,0,0a2.72,2.72,0,0,0-.57.62c-.13,0-.32.14-.57.41v.08h.24a.9.9,0,0,1,1,.78l0,0,0,.21,0,.21a1.31,1.31,0,0,0-.12.57c0,.11.08.16.12.16h0l.53-.16.12.25c-.35.51-.66.77-.93.77,0,.08,0,.13-.09.13l-.2,0-.21,0a1.7,1.7,0,0,1-1.13-.66l0-.33,0-.28-.17-.41.08-.25c0-.55-.1-.82-.32-.82s-.16-.19-.16-.58a.41.41,0,0,0,.36-.41l.12-.65-.12-.58,0-.2a.88.88,0,0,0-.4-.7l0-.41Z"/><path d="M90.15,126.9l-.06,0-.5.07h-.21l-.26,0a1.39,1.39,0,0,1-.32,0h0a.24.24,0,0,1-.12,0H88.6a.29.29,0,0,1-.21-.1l-.21,0-.07,0-.07,0h-.15a.27.27,0,0,1-.15.07l-.15,0h0l0,0-.09,0-.11,0-.1,0a.3.3,0,0,1-.16,0h0l-.15,0a4,4,0,0,0-.69,0,.41.41,0,0,1-.28-.11c0,.05-.08.08-.25.09l-.1,0-.13,0a.87.87,0,0,1-.28-.07h0l0,0-.39,0c-.15,0-.24,0-.28.07h0l-.07,0-.1,0h-.07a2.39,2.39,0,0,1-.43,0l-.12-.07v0l0,0s.07,0,.07,0v0l-.06,0,0-.13h0s0,0,0,0v-.07l.07-.13a1,1,0,0,1,.35.06.42.42,0,0,0,.27-.07h.08l.31,0h0l.19,0a1.48,1.48,0,0,1,.45.1h.07c.06,0,.09,0,.1,0h0l0,0h.07s.14-.06.41-.09l.1,0h0l0,0s.07,0,.07.05l.12,0h.13l.46.09.17-.07v0a1.07,1.07,0,0,0,.32,0l.18,0a1.35,1.35,0,0,0,.51-.07,2.17,2.17,0,0,0,.48.13h.09a1.6,1.6,0,0,1,.41-.09l0,0h.05v0h.06s0,.06.09.06h0l0,0,.09,0h0a.22.22,0,0,1,.14,0l.09-.09.29.07Zm0-8.19c-.07,0-.1,0-.1-.06l-.14,0,0,0h0l-.1,0-.2,0-.53.11-.44-.06-.27,0v0l-.08,0H88l-.23-.07h-.14l-.18,0h0a.72.72,0,0,1-.32,0l-.13,0-.35,0s-.08,0-.25,0l-.16,0h-.21c-.31,0-.48,0-.51.08h-.09l-.53-.09h-.11l-.2,0-.31,0h-.07l-.27.08a.24.24,0,0,1-.25-.15.49.49,0,0,0,.09-.28l0-.07c0-.09.09-.13.25-.13l.37,0a.3.3,0,0,1,.16,0h.07c.06,0,.1,0,.11,0l.49,0,.38.11.28-.09v0l.23-.06.11,0,.07,0,0,.06h.05l.06-.06.16,0,.26,0a.46.46,0,0,0,.27.07l.09,0,.08,0h.29l.28,0,.3-.07.25,0,.11,0h.28l.16,0,.12,0,.06,0,.12,0h0v0l.25,0h.07l.18,0,.21,0h.06l.06,0Zm-4.31,2.05h0l0,.13,0,.12,0,.41a1.38,1.38,0,0,1-.25.87,2.64,2.64,0,0,1-.32,1.15l0,.12,0,.29,0,.29-.13,0,0,.25-.12.33v0c0,.24.18.38.53.41h.08v0c0,.33-.09.5-.28.5H85a.5.5,0,0,1-.29-.13l-.57.13c-.11,0-.2-.16-.29-.46v-.08c.33,0,.49-.15.49-.45a3.52,3.52,0,0,0,.7-1.32l0-.12.44-1.53.09-.08,0-.12A1.12,1.12,0,0,1,85.84,120.76Zm2-1.4,0,0,.08.08h0l-.08.33.17.46.16.16v.87a2.8,2.8,0,0,1,.32,1l.17.16,0,0v.17l0,.16,0,.17.24.74h0l.12.2-.12.21c.09,0,.18.17.25.5l0,.28c0,.08.12.17.37.25l.11.33-.16.12h0l-.12-.08h-.08l-.53.17h0l-.17,0-.16,0h-.09l-.2-.13-.86.13a.34.34,0,0,1-.32-.21v0a.59.59,0,0,0,.24-.54l-.08-.28,0,0-.08-.37,0,0V124h-.37l-.33.08a.65.65,0,0,0-.4-.08l0,0v-.38s.09-.09.25-.12l.16.17h.29l.21-.05-.13-.7,0-.24c-.08,0-.18-.31-.29-.91l.05-.12L86,120.31l0-.12,0-.38q0-.24.24-.24l.21,0Z"/><path d="M94.17,118.75h0c-.23,0-.35,0-.37-.06h0l0,0-.07,0s-.18.08-.53.09l-.3-.07h-.07l0,0,0,0h0l-.09,0-.11,0h-.07l-.23,0-.19,0h-.18l-.16,0-.25,0h0l-.16,0-.25.08-.21-.06h-.18l0,0,0,0H90.5l-.16,0-.38,0v-.53l.05,0h0l.11,0,0,0s.12,0,.37,0a.47.47,0,0,0,.21,0s.06,0,.16,0,.07,0,.2.07h.19l.13-.06.37.08.12,0h0l0,0,.12,0,.3.06.14-.06h0l0,0,.26,0,.25.08.36-.08.33,0,.14,0s.06,0,.18,0h0l0,0a1,1,0,0,1,.36,0c.13,0,.22,0,.26-.07h.09l.3,0h0l.2,0a1.21,1.21,0,0,1,.44.11h.07c.06,0,.1,0,.11-.06h0v0h.07v.54h0l-.11,0-.12,0a.73.73,0,0,1-.29-.07h0l0,0-.39,0c-.15,0-.25,0-.28.08h0l-.07-.06-.11,0v0h-.06a2.12,2.12,0,0,1-.42,0Zm0,8.11h0l-.16,0s0,0,0,0l-.14,0v0a.62.62,0,0,0-.23.07.54.54,0,0,1-.25-.1h-.71l-.11,0-.32,0h0l-.14,0h-.09a1.09,1.09,0,0,0-.32,0l-.05,0-.25,0h-.07l-.28-.07a1.9,1.9,0,0,1-.43.09s0-.06-.07-.06l-.1,0-.15,0v0l0,0H90v-.53l.1,0h.12l.11,0,.28,0h.35a.94.94,0,0,1,.37,0,.82.82,0,0,1,.25-.13h.06l.33.08h.25l.12,0,.3,0a.69.69,0,0,0,.27-.09.49.49,0,0,1,.25.12h0l.06,0h0v0h0a.24.24,0,0,1,.13-.07l.14,0,0,0s0,.06.1.06.27,0,.27,0l.19,0h.21l.26.07h.07l.32,0,.2,0,.1,0,.53-.09h.09s.12.06.28.07v.52l-.21-.07-.37.11-.5-.06s0,.06-.1.06H94.9a.23.23,0,0,1-.16-.06l-.37.06Q94.16,127,94.13,126.86Zm-3.68-7.51.33,0,.29,0q.41,0,.45.54l-.41.25v.08a.85.85,0,0,1-.24.63c0,.56-.1.83-.3.83h-.12c-.1,0-.18-.19-.25-.58l0,0v0l0-.25,0-.59,0,0v0l0-.13c-.06,0-.12-.16-.16-.5C90.08,119.39,90.2,119.35,90.45,119.35Zm2.61,0,.16,0,.21,0a.57.57,0,0,1,.41.21l0,.79,0,.38-.08.21.12.74q-.09,0-.12.3l0,.12-.08.25v0l0,.13-.08.88a2.39,2.39,0,0,1,.16.91l0,.17,0,.12-.08.09v.2c0,.09.18.18.46.25l0,.21v.09q-.11,0-.21.21h-.12l-.25,0a1.25,1.25,0,0,1-.54.09l-.25-.09v0l0,0h-.08l-.33.09a.93.93,0,0,1-.5-.21l-.42.12c0-.06,0-.11-.16-.12v-.08q.12,0,.12-.21c.13,0,.23-.18.29-.55l0,0v-.37c0-.58.05-.9.16-1v0c0-.35-.14-.56-.25-.63v0a.44.44,0,0,0,.13-.29V122l-.09-.67v0a1.16,1.16,0,0,1,.25-.63,5.39,5.39,0,0,0-.12-1.17h0l.79,0C92.73,119.48,92.84,119.43,93.06,119.39Zm1.57,0h.62a1.87,1.87,0,0,1,.21.88,1.19,1.19,0,0,0-.12.58l.08.17-.17.66H95c-.08,0-.15-.15-.2-.45l.08-.09c0-.51-.12-.83-.37-1,0-.16-.1-.25-.29-.25l0,0v0l.08-.17,0-.21Z"/><path d="M99.51,118.74h0l-.27,0h0l-.14,0-.3,0-.13,0,0,0h0l-.13,0-.37.07-.12,0h-.2c-.13,0-.19,0-.19.07s-.16,0-.16,0-.19,0-.21,0c-.25,0-.38,0-.38,0l0,0-.11,0H96.6l0,0h-.09l-.19,0,0,0h0l-.16,0h-.18v-.58l.18,0,.12,0,0,0h0l.07,0,0,0,.06,0,.53,0,.16,0h.28l.21,0,.25.07.16,0h0l.25.06.16-.06h.17l.2,0,.23,0h.48Zm0,8.13-.13,0,0,0h0a.87.87,0,0,1-.28.07l-.13,0h-.1c-.17,0-.25,0-.25-.09a.37.37,0,0,1-.28.11,5.34,5.34,0,0,0-.69,0l-.15,0h0a.3.3,0,0,1-.16,0l-.1,0-.11,0-.09,0h-.18a.3.3,0,0,1-.16-.07h-.14l-.07,0-.07,0-.21,0a.29.29,0,0,1-.21.1v-.52l.4-.12a1.32,1.32,0,0,0,.51.07l.18,0a1.06,1.06,0,0,0,.31.05v0l.18.07.46-.09h.13l.12,0s0,0,.07,0l0,0h0l.1,0c.27,0,.41.06.41.09h.07l0,0h0s0,0,.1,0h.07a1.51,1.51,0,0,1,.42-.1Zm-1-7.52,0,0h.24c0,.07.06.14.2.2l0,.25c-.3,0-.44.09-.44.28l-.09.29,0,0v0l-.13.24,0,.13,0,.12c0,.43.07.65.21.65l0,.29v.73l.08.16-.25.57.25,1v.28l0,.25s.13.19.4.41l-.24.45a1.39,1.39,0,0,1-.61-.25l-.53.13a1.26,1.26,0,0,0-.52-.17l-.28.17h-.25a.72.72,0,0,1-.52-.25v-.08l.4-.24.16-.38,0-.36c0-.14,0-.21.08-.21l-.08-.69,0,0v0l-.08-.49v-.57l0,0,0,0v-.08c0-.14,0-.2-.08-.2l.16-.65-.08-.25.08-.57c0-.2-.15-.37-.44-.53l0-.29v0a10.21,10.21,0,0,1,1.41-.16l0,0,.45,0C98.34,119.41,98.48,119.39,98.48,119.35Z"/><path d="M105.6,118.7h0a.75.75,0,0,1-.32,0h0l-.17,0h-.15l-.23.07h-.21l-.07,0,0,0-.26,0-.44.06-.54-.11-.19,0-.11,0h0l0,0-.14,0s-.1.07-.31.11a.24.24,0,0,1-.14.09.38.38,0,0,0-.26-.13l-.09.06a.49.49,0,0,0-.27-.11l-.21,0h-.28l-.11.05a.25.25,0,0,0-.16-.05.9.9,0,0,0-.25,0l-.39,0s0,.07,0,.07H100l0,0-.23-.11h0l-.35.09v-.51h.08l.25-.07.12,0,.2,0,.1,0h.11l.16,0,0,0h.27l.21,0,0,0,0,0,.18,0h.16l.17-.09.29.07,0,0h0l.15,0h.19l.07,0,.07,0h.18l.14,0h.05l.22,0,.17,0h.07l.25,0,0,0h0l.12,0,0,0,.13,0,.16,0h.28l.11,0,.24,0,.31.07.28,0h.28l.09,0,.09,0h0Zm0,8.3,0,0h0a.25.25,0,0,1-.16-.06l-.1,0-.11,0-.09,0,0,0h0l-.15,0a.33.33,0,0,1-.16-.07h-.14l-.07,0-.07,0-.21,0a.31.31,0,0,1-.21.11h-.06a.21.21,0,0,1-.12,0h0a1.39,1.39,0,0,1-.32,0l-.26,0-.11,0-.09,0,0,0-.49-.07-.25.07-.12,0-.2,0-.1,0h-.11l-.16,0,0,0h-.27l-.21,0,0,0,0,0-.18,0h-.16l-.18.09-.28-.07,0,0h0l-.15,0h-.19l-.07,0-.07,0h-.26v-.5l.21,0a.24.24,0,0,1,.14-.09.38.38,0,0,0,.26.13l.09-.06a.49.49,0,0,0,.27.11l.21,0h.28l.11,0a.25.25,0,0,0,.16,0,.9.9,0,0,0,.25,0l.39,0s0-.07,0-.07H102l0,0,.23.11h0l.5-.13.09.09a.21.21,0,0,1,.14,0h0l.09,0h0c.06,0,.09,0,.09,0h.06v0h0l0-.06a1.6,1.6,0,0,1,.41.09h.09a2,2,0,0,0,.48-.12,1.55,1.55,0,0,0,.51.07l.18,0a.81.81,0,0,0,.31.06v0l.18.07h0ZM102,119.35a.19.19,0,0,1,.16.2.94.94,0,0,1-.48.57l-.08.49V121l0,.29c-.11,0-.16,0-.16.12l0,0v0l-.08.28.08.25,0,.2.08.08v.08l-.08.12v.13l.08.12v.16l0,0,.08.16-.08.25v.73l-.08.12v.2a2.58,2.58,0,0,0,.6.9c0,.3,0,.44-.16.44a1.88,1.88,0,0,0-.81-.28,2.23,2.23,0,0,1-1.17-1.18,1.23,1.23,0,0,0-.2-.52,1.1,1.1,0,0,0-.28-.45l0-.21a.85.85,0,0,0,.16-.36l0-.53a4.08,4.08,0,0,0,.24-1.22l.12-.12,0-.36c.11,0,.16-.07.16-.21.25,0,.37-.11.37-.32l.4-.29.24,0A4.24,4.24,0,0,1,102,119.35Zm.84.08c.49.09.73.22.73.4a.7.7,0,0,0,.44.09,1.13,1.13,0,0,1,.29.61c.2,0,.41.54.64,1.62l0,0a2.33,2.33,0,0,0-.16,1l0,.37c-.07.27-.17.41-.28.41a1.23,1.23,0,0,1-.85,1.17,1.21,1.21,0,0,1-1.09.41.48.48,0,0,1-.36.2l0-.12a.77.77,0,0,1,.48-.69q.09-.45.21-.48l0-.05v-.08l0-.4a4.09,4.09,0,0,1-.25-1.1.55.55,0,0,1,.25-.41l0-.32-.25-.53.16-.61-.16-.28,0-.21v-.12a.73.73,0,0,0-.4-.57v0l0-.2h.12Z"/><path d="M111.74,126.94h-.11l-.21,0-.18,0-.07,0-.25,0,0,0h0l-.13,0-.05,0-.13,0-.15-.06H110l-.25,0-.3-.07-.29,0-.12,0-.07,0-.09,0-.09,0-.09,0a.45.45,0,0,0-.26.07l-.27,0-.16,0,0,0h0l-.06,0-.07,0-.1,0-.23,0h0l-.29-.08-.37.1-.49,0a.12.12,0,0,1-.11,0h-.07a.28.28,0,0,1-.16,0l-.37,0c-.17,0-.25,0-.25-.12l0-.07a.5.5,0,0,0-.09-.29.24.24,0,0,1,.25-.14l.26.07h.07l.32,0,.2,0,.1,0,.53-.09h.09c0,.05.21.07.52.07h.21l.16,0c.16,0,.25,0,.25.06l.35,0,.12,0a.62.62,0,0,1,.32-.06h0l.18.06h.14l.23-.08h.21l.07,0,0,0,.27,0,.44-.05.53.11.19,0,.11,0h0l.14,0s0,0,.09,0Zm0-8.21-.15,0-.08-.09c-.08,0-.12,0-.15,0h0l-.09.06,0,0h0c-.06,0-.09,0-.09,0h0v0H111l0,0a1.69,1.69,0,0,1-.41-.09h-.08a1.56,1.56,0,0,0-.48.13,1.41,1.41,0,0,0-.52-.07l-.17,0a1.13,1.13,0,0,0-.32,0v0l-.18-.08-.46.09h-.25s0,0-.07,0l0,0h0l-.11,0a1.19,1.19,0,0,1-.41-.09h-.07l0,0h0s0-.06-.11-.06h-.07a1.21,1.21,0,0,1-.44.11l-.2,0h-.05l-.3,0h-.09s-.13-.07-.27-.07a.92.92,0,0,1-.35,0l-.07-.12v-.07a0,0,0,0,0,.05,0v0l0-.12,0-.06h0s0,0-.07-.06h0v0l.13-.07a2.24,2.24,0,0,1,.42.05h0l0,0,.11,0,.07-.06h0a.38.38,0,0,0,.29.08l.39,0v0h0a.67.67,0,0,1,.29-.07l.12,0,.11,0q.24,0,.24.09a.43.43,0,0,1,.29-.1,5.09,5.09,0,0,0,.69.05l.14-.05h0a.22.22,0,0,1,.16.05l.11,0,.1.06.09-.06,0,0h0l.14,0a.33.33,0,0,1,.16.08h.28l.21,0a.35.35,0,0,1,.22-.11h0a.17.17,0,0,1,.12.06h0a1,1,0,0,1,.32-.06l.27,0,.1,0,.09,0,0,0,.41.06Zm-6,.62a1.24,1.24,0,0,1,.73.2.65.65,0,0,0,.37-.12h.45c.71.08,1.07.19,1.07.33a.81.81,0,0,0,.53.74,3,3,0,0,1,.32,1l.21.37,0,0V122c.71.77,1.06,1.34,1.06,1.69l0,0v.05l0,.2,0,.33c.11,0,.16.15.16.45s0,.47-.12.5l0,0v.12l-.08.13,0,.12h0l-.21.08c-.87-.18-1.3-.43-1.3-.74-.1,0-.18-.16-.25-.49-.05,0-.08-.06-.08-.17s-.2-.14-.2-.41a1.33,1.33,0,0,1-.54-.87,2.37,2.37,0,0,1-.37-.7c-.07,0-.16-.19-.28-.57-.17,0-.35-.39-.53-1-.5-.63-.81-1-.94-1s-.15,0-.21-.16C105.63,119.5,105.72,119.4,105.72,119.35Zm.65,1.69a4,4,0,0,1,.37,1v.49l-.08.16.16.7v.05a4.13,4.13,0,0,1-.16,1s.12.2.2.58l0,0h0l0,0h0c.21.07.32.14.32.21v.2l-.08.25-.9-.08c-.16,0-.24,0-.24.08l-.17-.08-.24,0-.08-.08v-.21a.8.8,0,0,0,.49-.7l.08-.12,0-.29.28-.54v-.2l-.28-.87,0-.62h0l0,0v-.57l0-.05,0,0v0C106.26,121.12,106.31,121.05,106.37,121Zm3.4-1.57a2.38,2.38,0,0,1,.69.17h0l.16-.13h.17a.33.33,0,0,1,.37.25c0,.11-.09.18-.25.21,0,0-.13.17-.41.37l0,.33,0,.61-.16,1.24v.21a.67.67,0,0,1-.33-.62l.12-.41a2,2,0,0,1-.16-.7l.08-.33c0-.07-.09-.16-.28-.29l0-.17,0,0v-.25l-.29-.24v-.17Z"/></svg>