<svg id="Layer_1" data-name="Layer 1" xmlns="http://www.w3.org/2000/svg" viewBox="0 0 149.32 130.04"><defs><style>.cls-1{fill:#2b414e;}.cls-2{fill:#e6e8ea;}.cls-3{fill:#fff;}.cls-4{fill:#bbc2c6;}.cls-5{fill:#e65235;}.cls-6{fill:#ee4650;}.cls-7{fill:#313238;}.cls-8{fill:#3d535e;}</style></defs><title>Guaranteed icon</title><path class="cls-1" d="M121.83,114.32,69.22,102.46,93.94,18.17l52.8,11.18a3.2,3.2,0,0,1,2.45,4.09l-23,78.29A3.77,3.77,0,0,1,121.83,114.32Z"/><polygon class="cls-2" points="130.88 30.39 92.73 22.29 70.43 98.34 122.16 109.97 140.21 48.42 130.88 30.39"/><path class="cls-1" d="M69.22,102.46,16,86.84a1.79,1.79,0,0,1-1.22-2.24L38.43,3.78a1.81,1.81,0,0,1,2.24-1.22L93.94,18.17Z"/><rect class="cls-3" x="29.7" y="13.24" width="52.95" height="79.25" transform="translate(17.14 -13.67) rotate(16.34)"/><polygon class="cls-4" points="126.46 45.47 140.21 48.42 130.88 30.39 126.46 45.47"/><path class="cls-5" d="M105.06,69.66a10.92,10.92,0,0,1-5.25-1.33A9.87,9.87,0,0,1,95,62.1a10.69,10.69,0,0,1,1.39-8.41,12.07,12.07,0,0,1,10.14-5.62,10.93,10.93,0,0,1,5.22,1.31,9.93,9.93,0,0,1,4.88,6.24,10.65,10.65,0,0,1-1.4,8.43A12.08,12.08,0,0,1,105.06,69.66Zm1.43-21.39a11.85,11.85,0,0,0-10,5.53,10.46,10.46,0,0,0-1.37,8.25,9.65,9.65,0,0,0,4.75,6.1,10.63,10.63,0,0,0,5.15,1.31,11.86,11.86,0,0,0,10-5.52,10.46,10.46,0,0,0,1.37-8.27,9.71,9.71,0,0,0-4.78-6.11A10.72,10.72,0,0,0,106.49,48.27Z"/><rect class="cls-5" x="108.52" y="49.52" width="0.21" height="10.7" transform="translate(8.28 123.71) rotate(-61.25)"/><rect class="cls-5" x="104.26" y="56.3" width="0.21" height="10.69" transform="translate(0.05 123.38) rotate(-61.19)"/><rect class="cls-5" x="106.25" y="50.38" width="0.2" height="16.21" transform="translate(3.89 123.54) rotate(-61.22)"/><rect class="cls-6" x="15.53" y="24.38" width="61.72" height="93.26" rx="3.18" ry="3.18" transform="translate(-15.66 13.18) rotate(-13.86)"/><path class="cls-3" d="M43.32,58.59A19.82,19.82,0,0,0,29.51,70.88h0a19.8,19.8,0,0,0,5.38,21.8h0a19.85,19.85,0,1,0,8.43-34.1Zm2.86,8.17-1.65-6.71c3-.3,6.12,1.61,8.74,5Zm8.11-.31a28.7,28.7,0,0,1,3.6,8.15l-9.21,2.27-2.1-8.51Zm-11.35-6,1.65,6.71L37.5,68.91C38.26,64.72,40.16,61.56,42.94,60.45Zm2,8.3,2.11,8.52-9.22,2.27a28.6,28.6,0,0,1-.6-8.89Zm-8.7,11.18-6,1.49a18,18,0,0,1,.53-9.16l4.84-1.2A30.36,30.36,0,0,0,36.28,79.93Zm.39,1.59a30.23,30.23,0,0,0,3.53,8.17l-4.83,1.19A18.07,18.07,0,0,1,30.63,83Zm1.59-.39,9.22-2.27,2.1,8.51-7.72,1.91A28.7,28.7,0,0,1,38.26,81.13ZM50,89l1.66,6.71c-3,.31-6.13-1.6-8.75-5Zm3.25,6.32-1.65-6.72,7.08-1.75C57.9,91,56,94.18,53.22,95.29Zm-2-8.31-2.1-8.51,9.22-2.28a28.6,28.6,0,0,1,.6,8.89ZM59.88,75.8l6-1.49a18,18,0,0,1-.53,9.16l-4.84,1.2A30.38,30.38,0,0,0,59.88,75.8Zm-.4-1.59A30.06,30.06,0,0,0,56,66l4.84-1.19a18,18,0,0,1,4.74,7.87Zm-.2-10.68L55,64.6a17.53,17.53,0,0,0-5.21-4.86A18.33,18.33,0,0,1,59.28,63.53ZM38.17,62.6a17.58,17.58,0,0,0-2.36,6.72l-4.32,1.07A18.26,18.26,0,0,1,38.17,62.6Zm-1.3,29.6,4.32-1.07A17.55,17.55,0,0,0,46.41,96,18.28,18.28,0,0,1,36.87,92.2ZM58,93.14a17.63,17.63,0,0,0,2.36-6.73l4.32-1.07A18.34,18.34,0,0,1,58,93.14Z"/><rect class="cls-3" x="19.23" y="36.04" width="37.57" height="2.08" transform="translate(-7.78 10.19) rotate(-13.86)"/><rect class="cls-3" x="21.97" y="47.17" width="37.57" height="2.08" transform="translate(-10.36 11.17) rotate(-13.86)"/><polygon class="cls-1" points="104.13 103.94 68.34 103.94 63.88 108.18 108.59 108.18 104.13 103.94"/><path class="cls-7" d="M93.29,88.62h0a12.28,12.28,0,1,0-14.1,0h0c4.48,5.52,2.09,10.61-.62,13.85a2.2,2.2,0,0,0,1.73,3.59h11.9a2.2,2.2,0,0,0,1.72-3.59C91.21,99.23,88.82,94.14,93.29,88.62Z"/><polygon class="cls-8" points="63.88 108.18 65.07 119.15 107.41 119.15 108.59 108.18 63.88 108.18"/></svg>