<svg id="Layer_1" data-name="Layer 1" xmlns="http://www.w3.org/2000/svg" xmlns:xlink="http://www.w3.org/1999/xlink" viewBox="0 0 100.05 60"><defs><style>.cls-1{fill:none;}.cls-2{clip-path:url(#clip-path);}.cls-3{clip-path:url(#clip-path-2);}.cls-4{clip-path:url(#clip-path-3);}.cls-5{clip-path:url(#clip-path-4);}.cls-6{clip-path:url(#clip-path-5);}.cls-7{clip-path:url(#clip-path-6);}.cls-8{clip-path:url(#clip-path-7);}.cls-9{clip-path:url(#clip-path-8);}.cls-10{clip-path:url(#clip-path-9);}.cls-11{clip-path:url(#clip-path-10);}.cls-12{clip-path:url(#clip-path-11);}.cls-13{clip-path:url(#clip-path-12);}.cls-14{fill:#ee4650;fill-rule:evenodd;}</style><clipPath id="clip-path"><rect class="cls-1" x="463.85" y="1428.44" width="84.67" height="48"/></clipPath><clipPath id="clip-path-2"><rect class="cls-1" x="88.67" y="1411.12" width="607.71" height="88.66"/></clipPath><clipPath id="clip-path-3"><rect class="cls-1" x="-1.63" y="1148.21" width="2374.06" height="551.26"/></clipPath><clipPath id="clip-path-4"><rect class="cls-1" x="-1.63" y="1137.63" width="2374.06" height="561.84"/></clipPath><clipPath id="clip-path-5"><rect class="cls-1" x="677.41" y="1428.44" width="84.67" height="48"/></clipPath><clipPath id="clip-path-6"><rect class="cls-1" x="181.12" y="1411.12" width="607.71" height="88.66"/></clipPath><clipPath id="clip-path-7"><rect class="cls-1" x="90.82" y="1148.21" width="2374.06" height="551.26"/></clipPath><clipPath id="clip-path-8"><rect class="cls-1" x="90.82" y="1137.63" width="2374.06" height="561.84"/></clipPath><clipPath id="clip-path-9"><rect class="cls-1" x="241.26" y="1428.44" width="84.67" height="48"/></clipPath><clipPath id="clip-path-10"><rect class="cls-1" x="-13.17" y="1414.36" width="607.71" height="88.66"/></clipPath><clipPath id="clip-path-11"><rect class="cls-1" x="-103.47" y="1151.45" width="2374.06" height="551.26"/></clipPath><clipPath id="clip-path-12"><rect class="cls-1" x="-103.47" y="1140.87" width="2374.06" height="561.84"/></clipPath><image id="image" width="8001" height="5610" xlink:href="../solid visa thanks page-03.jpg"/></defs><title>handshake icon</title><g class="cls-2"><g class="cls-3"><g class="cls-4"><g class="cls-5"><use transform="translate(-1.63 -176.6) scale(0.3 0.33)" xlink:href="#image"/></g></g></g></g><g class="cls-6"><g class="cls-7"><g class="cls-8"><g class="cls-9"><use transform="translate(90.82 -176.6) scale(0.3 0.33)" xlink:href="#image"/></g></g></g></g><g class="cls-10"><g class="cls-11"><g class="cls-12"><g class="cls-13"><use transform="translate(-103.47 -173.36) scale(0.3 0.33)" xlink:href="#image"/></g></g></g></g><path class="cls-14" d="M39.67,51.9a2.57,2.57,0,0,1-1-.3,3,3,0,0,1-1.42-3.52l.08-.24H37a8.23,8.23,0,0,0-1.49.09c-.28,0-.57.08-.86.1a4.51,4.51,0,0,1-.64,0,2.16,2.16,0,0,1-1.38-.56c-.72-.7-.63-1.88-.49-2.92l0-.25-.25,0a15.79,15.79,0,0,1-2.48.11l-.43,0a2.32,2.32,0,0,1-1.64-.66A3.09,3.09,0,0,1,27,41.42v-.14c.13-1.32.07-1.51-1.27-1.83a3.32,3.32,0,0,1-2.16-1.26,3.5,3.5,0,0,1-.47-1.35,7,7,0,0,1-.06-1.71,1.48,1.48,0,0,1,.22-.78A1.29,1.29,0,0,1,24.44,34a1.77,1.77,0,0,1,.3,0,4.5,4.5,0,0,1,3.42,3.46l0,.13.13,0h.09c.49,0,.82-.36,1.11-.71a2.88,2.88,0,0,1,.41-.44,2.22,2.22,0,0,1,1.18-.37,6.68,6.68,0,0,1,1.18,0,2.57,2.57,0,0,1,2.12,1.1,3.59,3.59,0,0,1,.2,2.15,6.58,6.58,0,0,0,0,1.6l0,.33.27-.21a6.08,6.08,0,0,1,3.32-1.33h.3a.76.76,0,0,1,.25.06,1.06,1.06,0,0,1,.4.48,4.75,4.75,0,0,1,.19,3.87l-.1.25.26,0A4.22,4.22,0,0,1,43,48.88a3.64,3.64,0,0,1-.67,1.89A3,3,0,0,1,39.67,51.9Z"/><path class="cls-14" d="M82.58,33.63a1.54,1.54,0,0,1-.87-.34v-.16a31.43,31.43,0,0,0-1.25-7.28,38,38,0,0,1-1-5c0-.24-.07-.57-.11-1-.58-5.1-1-7.41-1.44-8.49a1.66,1.66,0,0,1,1.41-1.61l4.57-.59a1.79,1.79,0,0,1,.4,0,1.68,1.68,0,0,1,1.51,1.41L89,31.12A1.68,1.68,0,0,1,87.55,33L83,33.62a1.34,1.34,0,0,1-.4,0Z"/><path class="cls-14" d="M78.75,26.28a42,42,0,0,1-1.08-5.19l-.12-1c-.22-2-.81-7.27-1.35-8.09-3,.74-6.3,1.56-9.59,1.28L66,13.23a27.78,27.78,0,0,1-5.44-1.45L54.41,9.69a20.07,20.07,0,0,0-4.55-1.15,7.62,7.62,0,0,0-2,.08,11.55,11.55,0,0,0-2.64.9c-1.52.67-3,1.44-4.5,2.18a10.73,10.73,0,0,0-1.88,1.12,10.41,10.41,0,0,0-1.45,1.52l-5,6a.66.66,0,0,0-.15.63,3.3,3.3,0,0,0,1.82,1.73,5.19,5.19,0,0,0,1.67.42,6.49,6.49,0,0,0,5.47-2.36c.16-.19.31-.39.45-.59a4.8,4.8,0,0,1,1.73-1.68,4.68,4.68,0,0,1,1.93-.29c1.5,0,3,0,4.51,0l.55,0a2.17,2.17,0,0,1,.73.18l.08,0,.49.1.12,0,.37,0,.19.16c2,1,7.35,4.32,15.94,14.48l.31.36a11.09,11.09,0,0,1,1.64,2.27,1.23,1.23,0,0,0,.31.24.89.89,0,0,0,.4.12,1.85,1.85,0,0,0,1.45-.69l.1-.12a2.6,2.6,0,0,1,.32-.35,2.67,2.67,0,0,1,.56-.32A14.27,14.27,0,0,1,80,33,31.78,31.78,0,0,0,78.75,26.28Z"/><path class="cls-14" d="M51.51,20l-.95-.19c-.1,0-1.27,0-1.42,0-1.49,0-2.15,0-3.63,0a4,4,0,0,0-1.33.37,3.6,3.6,0,0,0-1,1.05c-.16.22-.32.45-.5.67A8.51,8.51,0,0,1,35.55,25a7,7,0,0,1-2.28-.58,5.2,5.2,0,0,1-2.94-3.06,2.65,2.65,0,0,1,.55-2.33l5-6h0a.65.65,0,0,0-.31-1,14.41,14.41,0,0,0-6.31-.85.64.64,0,0,0-.48.38,34.7,34.7,0,0,0-1.68,5.88A40.72,40.72,0,0,1,25.7,22.6l-.34.93c-1.17,3.13-2.67,8.57-2.64,8.71.16.66,1.06-.27,1.88-.19a4.81,4.81,0,0,1,.53.07,6.41,6.41,0,0,1,3.61,2.19.67.67,0,0,0,.77.2,4.85,4.85,0,0,1,1.4-.32,7.94,7.94,0,0,1,1.54,0,4.4,4.4,0,0,1,3.65,2.09,4.05,4.05,0,0,1,.42,1.14.65.65,0,0,0,.75.51c.26,0,.52-.08.78-.1a4.35,4.35,0,0,1,.63,0,2.64,2.64,0,0,1,1,.27,2.88,2.88,0,0,1,1.24,1.32,6.63,6.63,0,0,1,.72,3.27.63.63,0,0,0,.32.57,6.34,6.34,0,0,1,3,5.77,5,5,0,0,1-.07.54l.13.09c1.24,1,2.1,1.42,3.28,1.08a2.63,2.63,0,0,0,2-2.16.65.65,0,0,1,.89-.49,3.76,3.76,0,0,0,3.76-.21,2.76,2.76,0,0,0,1-2.47.65.65,0,0,1,1-.61,4.11,4.11,0,0,0,4.21.08,3.19,3.19,0,0,0,1.39-3.37.65.65,0,0,1,.91-.69,4.6,4.6,0,0,0,4.51-.36,4.15,4.15,0,0,0,1.14-2.71,2.27,2.27,0,0,0,0-.78,9.83,9.83,0,0,0-1.93-2.76C57,22.26,51.6,20.1,51.51,20Z"/><path class="cls-14" d="M26.84,8.18a1.58,1.58,0,0,1,.64.69L27.41,9a37.26,37.26,0,0,0-2.26,7.71,46.1,46.1,0,0,1-1.36,5.33c-.09.25-.21.59-.35,1a55.2,55.2,0,0,0-2.61,8.58,1.65,1.65,0,0,1-.52,1,1.75,1.75,0,0,1-1.56.38l-4.7-1a1.37,1.37,0,0,1-.38-.15,1.7,1.7,0,0,1-.71-2L19.6,8.35A1.85,1.85,0,0,1,21.77,7l4.7,1a1.2,1.2,0,0,1,.37.15Z"/></svg>