<svg id="Layer_1" data-name="Layer 1" xmlns="http://www.w3.org/2000/svg" xmlns:xlink="http://www.w3.org/1999/xlink" viewBox="0 0 176.37 61"><defs><style>.cls-1{fill:none;}.cls-2{font-size:22.39px;}.cls-2,.cls-3,.cls-4{fill:#ee4650;}.cls-2,.cls-3{font-family:Montserrat-Regular, Montserrat;}.cls-3{font-size:28.67px;}.cls-5{clip-path:url(#clip-path);}.cls-6{clip-path:url(#clip-path-2);}.cls-7{clip-path:url(#clip-path-3);}.cls-8{clip-path:url(#clip-path-4);}</style><clipPath id="clip-path"><rect class="cls-1" x="452.49" y="1538.44" width="84.67" height="48"/></clipPath><clipPath id="clip-path-2"><rect class="cls-1" x="198.06" y="1524.36" width="607.71" height="88.66"/></clipPath><clipPath id="clip-path-3"><rect class="cls-1" x="107.76" y="1261.45" width="2374.06" height="551.26"/></clipPath><clipPath id="clip-path-4"><rect class="cls-1" x="107.76" y="1250.87" width="2374.06" height="561.84"/></clipPath></defs><title>logo red svg</title><text class="cls-2" transform="translate(63.56 50.3)">VISA</text><text class="cls-3" transform="translate(61.79 22.36)">SOLID</text><polygon class="cls-4" points="29.95 50.29 29.95 50.3 29.96 50.3 29.95 50.29"/><path class="cls-4" d="M4.9,1.42V50.3H17.75l0-.09c.61-1.18.61-1.18-.44-2.06-3.43-2.9-10.47-8.89-10.64-9.07.83-.25,1.59-.51,2.37-.72.59-.16.76-.44.58-1C9,35.34,7.79,31,7.74,30.71c1.47.23,2.88.47,4.28.68,1.68.26,1.41.43,2-1.07.33-.82.67-1.64,1.05-2.57l7.65,7.32.29-.14c-1-4.79-2.18-9.53-3.28-14.46,1,.42,4.06,1.65,4.68,1.92a.54.54,0,0,0,.8-.25c.84-1.52,3.62-6.45,4.22-7.52.7,1.42,3.15,6.32,3.72,7.48.2.4.41.54.92.32,1.53-.65,3.1-1.24,4.77-1.9-1.14,4.71-2.24,9.33-3.35,13.94l.29.14c2.51-2.24,4.78-4.69,7.3-7,.55,1.21,1.1,2.31,1.56,3.43.23.59.58.7,1.18.55,1.39-.33,4.72-1.05,5.09-1.12-.43,1.7-1.49,6-1.67,6.59s0,.68.43.9c.73.37,1.45.78,2.27,1.23-.35.31-7.64,6.22-11,8.9a.87.87,0,0,0-.33,1.27c.16.32.31.66.45,1h12.7V1.42Z"/><g class="cls-5"><g class="cls-6"><g class="cls-7"><g class="cls-8"><image width="8001" height="5610" transform="translate(107.76 -63.36) scale(0.3 0.33)" xlink:href="../../solid visa thanks page-03.jpg"/></g></g></g></g></svg>