<svg id="Layer_1" data-name="Layer 1" xmlns="http://www.w3.org/2000/svg" xmlns:xlink="http://www.w3.org/1999/xlink" viewBox="0 0 166.67 58"><defs><style>.cls-1{fill:none;}.cls-2{font-size:22.39px;}.cls-2,.cls-3,.cls-4{fill:#fff;}.cls-2,.cls-3{font-family:Montserrat-Regular, Montserrat;}.cls-3{font-size:28.67px;}.cls-5{clip-path:url(#clip-path);}.cls-6{clip-path:url(#clip-path-2);}.cls-7{clip-path:url(#clip-path-3);}.cls-8{clip-path:url(#clip-path-4);}</style><clipPath id="clip-path"><rect class="cls-1" x="452.49" y="1427.44" width="84.67" height="48"/></clipPath><clipPath id="clip-path-2"><rect class="cls-1" x="198.06" y="1413.36" width="607.71" height="88.66"/></clipPath><clipPath id="clip-path-3"><rect class="cls-1" x="107.76" y="1150.45" width="2374.06" height="551.26"/></clipPath><clipPath id="clip-path-4"><rect class="cls-1" x="107.76" y="1139.87" width="2374.06" height="561.84"/></clipPath></defs><title>logo white svg</title><text class="cls-2" transform="translate(60.97 50.45)">VISA</text><text class="cls-3" transform="translate(59.19 22.52)">SOLID</text><polygon class="cls-4" points="27.35 50.45 27.35 50.45 27.36 50.45 27.35 50.45"/><path class="cls-4" d="M2.3,1.57V50.45H15.15l0-.08c.6-1.19.6-1.18-.44-2.07-3.43-2.9-10.48-8.89-10.65-9.06.83-.26,1.6-.52,2.37-.73.59-.16.76-.43.58-1-.62-2-1.86-6.4-1.92-6.65l4.29.69c1.68.25,1.4.42,2-1.08.33-.82.67-1.64,1.06-2.57l7.65,7.32.29-.13c-1-4.8-2.19-9.54-3.29-14.47,1,.42,4.07,1.65,4.68,1.92a.53.53,0,0,0,.8-.25c.85-1.52,3.62-6.44,4.22-7.52.71,1.42,3.15,6.32,3.72,7.48.2.4.41.54.93.32,1.53-.65,3.09-1.24,4.76-1.9C35.13,25.39,34,30,32.91,34.61l.29.15c2.51-2.24,4.79-4.7,7.3-7.06.56,1.21,1.11,2.31,1.56,3.44.24.58.58.69,1.19.54,1.39-.33,4.72-1.05,5.08-1.11-.42,1.69-1.48,6-1.66,6.58s0,.68.42.9c.74.37,1.45.79,2.27,1.24-.35.3-7.64,6.21-11,8.89A.88.88,0,0,0,38,49.45c.17.33.31.66.46,1H51.17V1.57Z"/><g class="cls-5"><g class="cls-6"><g class="cls-7"><g class="cls-8"><image width="8001" height="5610" transform="translate(107.76 -174.36) scale(0.3 0.33)" xlink:href="../../solid visa thanks page-03.jpg"/></g></g></g></g></svg>