<svg id="Layer_1" data-name="Layer 1" xmlns="http://www.w3.org/2000/svg" xmlns:xlink="http://www.w3.org/1999/xlink" viewBox="0 0 46.5 39"><defs><style>.cls-1{fill:none;}.cls-2{clip-path:url(#clip-path);}.cls-3{clip-path:url(#clip-path-2);}.cls-4{clip-path:url(#clip-path-3);}.cls-5{clip-path:url(#clip-path-4);}.cls-6{clip-path:url(#clip-path-5);}.cls-7{clip-path:url(#clip-path-6);}.cls-8{clip-path:url(#clip-path-7);}.cls-9{clip-path:url(#clip-path-8);}.cls-10{clip-path:url(#clip-path-9);}.cls-11{clip-path:url(#clip-path-10);}.cls-12{clip-path:url(#clip-path-11);}.cls-13{clip-path:url(#clip-path-12);}.cls-14{clip-path:url(#clip-path-13);}.cls-15{clip-path:url(#clip-path-14);}.cls-16{clip-path:url(#clip-path-15);}.cls-17{clip-path:url(#clip-path-16);}.cls-18{clip-path:url(#clip-path-17);}.cls-19{clip-path:url(#clip-path-18);}.cls-20{clip-path:url(#clip-path-19);}.cls-21{clip-path:url(#clip-path-20);}.cls-22{fill:#fff;}</style><clipPath id="clip-path"><rect class="cls-1" x="-1286.45" y="327.94" width="84.67" height="48"/></clipPath><clipPath id="clip-path-2"><rect class="cls-1" x="-1661.64" y="310.62" width="607.71" height="88.66"/></clipPath><clipPath id="clip-path-3"><rect class="cls-1" x="-1751.94" y="47.71" width="2374.06" height="551.26"/></clipPath><clipPath id="clip-path-4"><rect class="cls-1" x="-1751.94" y="37.13" width="2374.06" height="561.84"/></clipPath><clipPath id="clip-path-5"><rect class="cls-1" x="-1072.89" y="327.94" width="84.67" height="48"/></clipPath><clipPath id="clip-path-6"><rect class="cls-1" x="-1569.18" y="310.62" width="607.71" height="88.66"/></clipPath><clipPath id="clip-path-7"><rect class="cls-1" x="-1659.48" y="47.71" width="2374.06" height="551.26"/></clipPath><clipPath id="clip-path-8"><rect class="cls-1" x="-1659.48" y="37.13" width="2374.06" height="561.84"/></clipPath><clipPath id="clip-path-9"><rect class="cls-1" x="-1509.04" y="327.94" width="84.67" height="48"/></clipPath><clipPath id="clip-path-10"><rect class="cls-1" x="-1763.47" y="313.86" width="607.71" height="88.66"/></clipPath><clipPath id="clip-path-11"><rect class="cls-1" x="-1853.77" y="50.95" width="2374.06" height="551.26"/></clipPath><clipPath id="clip-path-12"><rect class="cls-1" x="-1853.77" y="40.37" width="2374.06" height="561.84"/></clipPath><clipPath id="clip-path-13"><rect class="cls-1" x="-1397.17" y="327.94" width="84.67" height="48"/></clipPath><clipPath id="clip-path-14"><rect class="cls-1" x="-1535.6" y="313.86" width="607.71" height="88.66"/></clipPath><clipPath id="clip-path-15"><rect class="cls-1" x="-1625.9" y="50.95" width="2374.06" height="551.26"/></clipPath><clipPath id="clip-path-16"><rect class="cls-1" x="-1625.9" y="40.37" width="2374.06" height="561.84"/></clipPath><clipPath id="clip-path-17"><rect class="cls-1" x="-1181.29" y="327.94" width="84.67" height="48"/></clipPath><clipPath id="clip-path-18"><rect class="cls-1" x="-1201.72" y="313.86" width="607.71" height="88.66"/></clipPath><clipPath id="clip-path-19"><rect class="cls-1" x="-1292.01" y="50.95" width="2374.06" height="551.26"/></clipPath><clipPath id="clip-path-20"><rect class="cls-1" x="-1292.01" y="40.37" width="2374.06" height="561.84"/></clipPath><image id="image" width="8001" height="5610" xlink:href="../../solid visa thanks page-03.jpg"/></defs><title>mail icon - contact ( footer )</title><g class="cls-2"><g class="cls-3"><g class="cls-4"><g class="cls-5"><use transform="translate(-1751.94 -1277.1) scale(0.3 0.33)" xlink:href="#image"/></g></g></g></g><g class="cls-6"><g class="cls-7"><g class="cls-8"><g class="cls-9"><use transform="translate(-1659.48 -1277.1) scale(0.3 0.33)" xlink:href="#image"/></g></g></g></g><g class="cls-10"><g class="cls-11"><g class="cls-12"><g class="cls-13"><use transform="translate(-1853.77 -1273.86) scale(0.3 0.33)" xlink:href="#image"/></g></g></g></g><g class="cls-14"><g class="cls-15"><g class="cls-16"><g class="cls-17"><use transform="translate(-1625.9 -1273.86) scale(0.3 0.33)" xlink:href="#image"/></g></g></g></g><g class="cls-18"><g class="cls-19"><g class="cls-20"><g class="cls-21"><use transform="translate(-1292.01 -1273.86) scale(0.3 0.33)" xlink:href="#image"/></g></g></g></g><g id="_Group_" data-name="&lt;Group&gt;"><path id="_Compound_Path_" data-name="&lt;Compound Path&gt;" class="cls-22" d="M33.65,4.39,4.44,21.89H15.83V30.8l7.79-7.26L32,26.37l2.35-22.8ZM7.16,21.14,32,6.28,18.59,21.14Zm9.42,7.93V21.89H18.7l4.11,1.38Zm14.81-3.71-12-4,14-15.55Z"/></g></svg>