<svg id="Layer_1" data-name="Layer 1" xmlns="http://www.w3.org/2000/svg" xmlns:xlink="http://www.w3.org/1999/xlink" viewBox="0 0 37.4 40.5"><defs><style>.cls-1{fill:none;}.cls-2{clip-path:url(#clip-path);}.cls-3{clip-path:url(#clip-path-2);}.cls-4{clip-path:url(#clip-path-3);}.cls-5{clip-path:url(#clip-path-4);}.cls-6{clip-path:url(#clip-path-5);}.cls-7{clip-path:url(#clip-path-6);}.cls-8{clip-path:url(#clip-path-7);}.cls-9{clip-path:url(#clip-path-8);}.cls-10{clip-path:url(#clip-path-9);}.cls-11{clip-path:url(#clip-path-10);}.cls-12{clip-path:url(#clip-path-11);}.cls-13{clip-path:url(#clip-path-12);}.cls-14{clip-path:url(#clip-path-13);}.cls-15{clip-path:url(#clip-path-14);}.cls-16{clip-path:url(#clip-path-15);}.cls-17{clip-path:url(#clip-path-16);}.cls-18{clip-path:url(#clip-path-17);}.cls-19{clip-path:url(#clip-path-18);}.cls-20{clip-path:url(#clip-path-19);}.cls-21{clip-path:url(#clip-path-20);}.cls-22{fill:#20323e;}</style><clipPath id="clip-path"><rect class="cls-1" x="-1282.45" y="254.94" width="84.67" height="48"/></clipPath><clipPath id="clip-path-2"><rect class="cls-1" x="-1657.64" y="237.62" width="607.71" height="88.66"/></clipPath><clipPath id="clip-path-3"><rect class="cls-1" x="-1747.94" y="-25.29" width="2374.06" height="551.26"/></clipPath><clipPath id="clip-path-4"><rect class="cls-1" x="-1747.94" y="-35.87" width="2374.06" height="561.84"/></clipPath><clipPath id="clip-path-5"><rect class="cls-1" x="-1068.89" y="254.94" width="84.67" height="48"/></clipPath><clipPath id="clip-path-6"><rect class="cls-1" x="-1565.18" y="237.62" width="607.71" height="88.66"/></clipPath><clipPath id="clip-path-7"><rect class="cls-1" x="-1655.48" y="-25.29" width="2374.06" height="551.26"/></clipPath><clipPath id="clip-path-8"><rect class="cls-1" x="-1655.48" y="-35.87" width="2374.06" height="561.84"/></clipPath><clipPath id="clip-path-9"><rect class="cls-1" x="-1505.04" y="254.94" width="84.67" height="48"/></clipPath><clipPath id="clip-path-10"><rect class="cls-1" x="-1759.47" y="240.86" width="607.71" height="88.66"/></clipPath><clipPath id="clip-path-11"><rect class="cls-1" x="-1849.77" y="-22.05" width="2374.06" height="551.26"/></clipPath><clipPath id="clip-path-12"><rect class="cls-1" x="-1849.77" y="-32.63" width="2374.06" height="561.84"/></clipPath><clipPath id="clip-path-13"><rect class="cls-1" x="-1393.17" y="254.94" width="84.67" height="48"/></clipPath><clipPath id="clip-path-14"><rect class="cls-1" x="-1531.6" y="240.86" width="607.71" height="88.66"/></clipPath><clipPath id="clip-path-15"><rect class="cls-1" x="-1621.9" y="-22.05" width="2374.06" height="551.26"/></clipPath><clipPath id="clip-path-16"><rect class="cls-1" x="-1621.9" y="-32.63" width="2374.06" height="561.84"/></clipPath><clipPath id="clip-path-17"><rect class="cls-1" x="-1177.29" y="254.94" width="84.67" height="48"/></clipPath><clipPath id="clip-path-18"><rect class="cls-1" x="-1197.72" y="240.86" width="607.71" height="88.66"/></clipPath><clipPath id="clip-path-19"><rect class="cls-1" x="-1288.01" y="-22.05" width="2374.06" height="551.26"/></clipPath><clipPath id="clip-path-20"><rect class="cls-1" x="-1288.01" y="-32.63" width="2374.06" height="561.84"/></clipPath><image id="image" width="8001" height="5610" xlink:href="../../solid visa thanks page-03.jpg"/></defs><title>pin icon - contact ( Footer )</title><g class="cls-2"><g class="cls-3"><g class="cls-4"><g class="cls-5"><use transform="translate(-1747.94 -1350.1) scale(0.3 0.33)" xlink:href="#image"/></g></g></g></g><g class="cls-6"><g class="cls-7"><g class="cls-8"><g class="cls-9"><use transform="translate(-1655.48 -1350.1) scale(0.3 0.33)" xlink:href="#image"/></g></g></g></g><g class="cls-10"><g class="cls-11"><g class="cls-12"><g class="cls-13"><use transform="translate(-1849.77 -1346.86) scale(0.3 0.33)" xlink:href="#image"/></g></g></g></g><g class="cls-14"><g class="cls-15"><g class="cls-16"><g class="cls-17"><use transform="translate(-1621.9 -1346.86) scale(0.3 0.33)" xlink:href="#image"/></g></g></g></g><g class="cls-18"><g class="cls-19"><g class="cls-20"><g class="cls-21"><use transform="translate(-1288.01 -1346.86) scale(0.3 0.33)" xlink:href="#image"/></g></g></g></g><g id="_Group_" data-name="&lt;Group&gt;"><path id="_Compound_Path_" data-name="&lt;Compound Path&gt;" class="cls-22" d="M20.58,2.81A11.94,11.94,0,0,0,8.65,14.74c0,6.46,11.19,17.24,11.67,17.7l.26.25.26-.25c.48-.46,11.67-11.24,11.67-17.7A11.94,11.94,0,0,0,20.58,2.81Zm0,28.82C18.87,29.94,9.41,20.35,9.41,14.74a11.17,11.17,0,0,1,22.34,0C31.75,20.35,22.29,29.94,20.58,31.63Z"/><path id="_Compound_Path_2" data-name="&lt;Compound Path&gt;" class="cls-22" d="M20.58,11a3.73,3.73,0,1,0,3.72,3.73A3.73,3.73,0,0,0,20.58,11Zm0,6.69a3,3,0,1,1,3-3A3,3,0,0,1,20.58,17.7Z"/></g></svg>