<svg id="Layer_1" data-name="Layer 1" xmlns="http://www.w3.org/2000/svg" xmlns:xlink="http://www.w3.org/1999/xlink" viewBox="0 0 78.79 65.71"><defs><style>.cls-1{fill:none;}.cls-2{clip-path:url(#clip-path);}.cls-3{clip-path:url(#clip-path-2);}.cls-4{clip-path:url(#clip-path-3);}.cls-5{clip-path:url(#clip-path-4);}.cls-6{clip-path:url(#clip-path-5);}.cls-7{clip-path:url(#clip-path-6);}.cls-8{clip-path:url(#clip-path-7);}.cls-9{clip-path:url(#clip-path-8);}.cls-10{fill:#ee4650;}</style><clipPath id="clip-path"><rect class="cls-1" x="453.68" y="1330.44" width="84.67" height="48"/></clipPath><clipPath id="clip-path-2"><rect class="cls-1" x="78.49" y="1313.12" width="607.71" height="88.66"/></clipPath><clipPath id="clip-path-3"><rect class="cls-1" x="-11.81" y="1050.21" width="2374.06" height="551.26"/></clipPath><clipPath id="clip-path-4"><rect class="cls-1" x="-11.81" y="1039.63" width="2374.06" height="561.84"/></clipPath><clipPath id="clip-path-5"><rect class="cls-1" x="231.08" y="1330.44" width="84.67" height="48"/></clipPath><clipPath id="clip-path-6"><rect class="cls-1" x="-23.35" y="1316.36" width="607.71" height="88.66"/></clipPath><clipPath id="clip-path-7"><rect class="cls-1" x="-113.65" y="1053.45" width="2374.06" height="551.26"/></clipPath><clipPath id="clip-path-8"><rect class="cls-1" x="-113.65" y="1042.87" width="2374.06" height="561.84"/></clipPath><image id="image" width="8001" height="5610" xlink:href="../../solid visa thanks page-03.jpg"/></defs><title>study permits icon</title><g class="cls-2"><g class="cls-3"><g class="cls-4"><g class="cls-5"><use transform="translate(-11.81 -274.6) scale(0.3 0.33)" xlink:href="#image"/></g></g></g></g><g class="cls-6"><g class="cls-7"><g class="cls-8"><g class="cls-9"><use transform="translate(-113.65 -271.36) scale(0.3 0.33)" xlink:href="#image"/></g></g></g></g><path class="cls-10" d="M36.5,2.38l-30,16.83a2.15,2.15,0,0,0-.09,3.69L36.68,42a4.76,4.76,0,0,0,5.08,0L71.25,23.41a2.71,2.71,0,0,0-.12-4.67L41.94,2.38A5.55,5.55,0,0,0,36.5,2.38Z"/><path class="cls-10" d="M14.35,32,36.14,45.45a6.15,6.15,0,0,0,6.23.13L64.26,33.26a.94.94,0,0,1,1.4.82V49.26a.87.87,0,0,1-.1.42c-.79,1.52-6.46,11-25.65,12s-26-10.37-26.9-12a.91.91,0,0,1-.1-.43V32.77A.94.94,0,0,1,14.35,32Z"/><path class="cls-10" d="M71.79,52.13v-23s-2,1.5-2.5,1.75V52.17a3.57,3.57,0,1,0,2.5,0Z"/></svg>