<svg id="Layer_1" data-name="Layer 1" xmlns="http://www.w3.org/2000/svg" xmlns:xlink="http://www.w3.org/1999/xlink" viewBox="0 0 47.5 39.5"><defs><style>.cls-1{fill:none;}.cls-2{clip-path:url(#clip-path);}.cls-3{clip-path:url(#clip-path-2);}.cls-4{clip-path:url(#clip-path-3);}.cls-5{clip-path:url(#clip-path-4);}.cls-6{clip-path:url(#clip-path-5);}.cls-7{clip-path:url(#clip-path-6);}.cls-8{clip-path:url(#clip-path-7);}.cls-9{clip-path:url(#clip-path-8);}.cls-10{clip-path:url(#clip-path-9);}.cls-11{clip-path:url(#clip-path-10);}.cls-12{clip-path:url(#clip-path-11);}.cls-13{clip-path:url(#clip-path-12);}.cls-14{clip-path:url(#clip-path-13);}.cls-15{clip-path:url(#clip-path-14);}.cls-16{clip-path:url(#clip-path-15);}.cls-17{clip-path:url(#clip-path-16);}.cls-18{clip-path:url(#clip-path-17);}.cls-19{clip-path:url(#clip-path-18);}.cls-20{clip-path:url(#clip-path-19);}.cls-21{clip-path:url(#clip-path-20);}.cls-22{fill:#20323e;stroke:transparent;stroke-miterlimit:10;fill-rule:evenodd;}</style><clipPath id="clip-path"><rect class="cls-1" x="-1282.45" y="191.44" width="84.67" height="48"/></clipPath><clipPath id="clip-path-2"><rect class="cls-1" x="-1657.64" y="174.12" width="607.71" height="88.66"/></clipPath><clipPath id="clip-path-3"><rect class="cls-1" x="-1747.94" y="-88.79" width="2374.06" height="551.26"/></clipPath><clipPath id="clip-path-4"><rect class="cls-1" x="-1747.94" y="-99.37" width="2374.06" height="561.84"/></clipPath><clipPath id="clip-path-5"><rect class="cls-1" x="-1068.89" y="191.44" width="84.67" height="48"/></clipPath><clipPath id="clip-path-6"><rect class="cls-1" x="-1565.18" y="174.12" width="607.71" height="88.66"/></clipPath><clipPath id="clip-path-7"><rect class="cls-1" x="-1655.48" y="-88.79" width="2374.06" height="551.26"/></clipPath><clipPath id="clip-path-8"><rect class="cls-1" x="-1655.48" y="-99.37" width="2374.06" height="561.84"/></clipPath><clipPath id="clip-path-9"><rect class="cls-1" x="-1505.04" y="191.44" width="84.67" height="48"/></clipPath><clipPath id="clip-path-10"><rect class="cls-1" x="-1759.47" y="177.36" width="607.71" height="88.66"/></clipPath><clipPath id="clip-path-11"><rect class="cls-1" x="-1849.77" y="-85.55" width="2374.06" height="551.26"/></clipPath><clipPath id="clip-path-12"><rect class="cls-1" x="-1849.77" y="-96.13" width="2374.06" height="561.84"/></clipPath><clipPath id="clip-path-13"><rect class="cls-1" x="-1393.17" y="191.44" width="84.67" height="48"/></clipPath><clipPath id="clip-path-14"><rect class="cls-1" x="-1531.6" y="177.36" width="607.71" height="88.66"/></clipPath><clipPath id="clip-path-15"><rect class="cls-1" x="-1621.9" y="-85.55" width="2374.06" height="551.26"/></clipPath><clipPath id="clip-path-16"><rect class="cls-1" x="-1621.9" y="-96.13" width="2374.06" height="561.84"/></clipPath><clipPath id="clip-path-17"><rect class="cls-1" x="-1177.29" y="191.44" width="84.67" height="48"/></clipPath><clipPath id="clip-path-18"><rect class="cls-1" x="-1197.72" y="177.36" width="607.71" height="88.66"/></clipPath><clipPath id="clip-path-19"><rect class="cls-1" x="-1288.01" y="-85.55" width="2374.06" height="551.26"/></clipPath><clipPath id="clip-path-20"><rect class="cls-1" x="-1288.01" y="-96.13" width="2374.06" height="561.84"/></clipPath><image id="image" width="8001" height="5610" xlink:href="../../solid visa thanks page-03.jpg"/></defs><title>whatsapp icon - contact (Footer )</title><g class="cls-2"><g class="cls-3"><g class="cls-4"><g class="cls-5"><use transform="translate(-1747.94 -1413.6) scale(0.3 0.33)" xlink:href="#image"/></g></g></g></g><g class="cls-6"><g class="cls-7"><g class="cls-8"><g class="cls-9"><use transform="translate(-1655.48 -1413.6) scale(0.3 0.33)" xlink:href="#image"/></g></g></g></g><g class="cls-10"><g class="cls-11"><g class="cls-12"><g class="cls-13"><use transform="translate(-1849.77 -1410.36) scale(0.3 0.33)" xlink:href="#image"/></g></g></g></g><g class="cls-14"><g class="cls-15"><g class="cls-16"><g class="cls-17"><use transform="translate(-1621.9 -1410.36) scale(0.3 0.33)" xlink:href="#image"/></g></g></g></g><g class="cls-18"><g class="cls-19"><g class="cls-20"><g class="cls-21"><use transform="translate(-1288.01 -1410.36) scale(0.3 0.33)" xlink:href="#image"/></g></g></g></g><path class="cls-22" d="M11.11,33.4l2.2-7.81a15.62,15.62,0,1,1,5.85,5.74l-8,2.07Zm11.31-23-1-.06a1.23,1.23,0,0,0-.88.3A4.62,4.62,0,0,0,19,12.93c-.36,1.61.2,3.58,1.64,5.55A16.52,16.52,0,0,0,29.55,25a4.33,4.33,0,0,0,3.67-.46,3.31,3.31,0,0,0,1.43-2.08l.16-.76a.53.53,0,0,0-.3-.59l-3.43-1.58a.52.52,0,0,0-.64.15l-1.35,1.75a.38.38,0,0,1-.44.13,10.55,10.55,0,0,1-5.71-4.89.36.36,0,0,1,0-.43l1.29-1.5a.52.52,0,0,0,.08-.55l-1.48-3.46a.52.52,0,0,0-.46-.32ZM19.58,28.48l.48.29a13,13,0,1,0-4.19-4.1l.32.51-1.27,4.49Z"/></svg>