<svg id="Layer_1" data-name="Layer 1" xmlns="http://www.w3.org/2000/svg" xmlns:xlink="http://www.w3.org/1999/xlink" viewBox="0 0 70.1 75"><defs><style>.cls-1{fill:none;}.cls-2{clip-path:url(#clip-path);}.cls-3{clip-path:url(#clip-path-2);}.cls-4{clip-path:url(#clip-path-3);}.cls-5{clip-path:url(#clip-path-4);}.cls-6{clip-path:url(#clip-path-5);}.cls-7{clip-path:url(#clip-path-6);}.cls-8{clip-path:url(#clip-path-7);}.cls-9{clip-path:url(#clip-path-8);}.cls-10{clip-path:url(#clip-path-9);}.cls-11{clip-path:url(#clip-path-10);}.cls-12{clip-path:url(#clip-path-11);}.cls-13{clip-path:url(#clip-path-12);}.cls-14{fill:#ee4650;}</style><clipPath id="clip-path"><rect class="cls-1" x="441.13" y="1545.44" width="84.67" height="48"/></clipPath><clipPath id="clip-path-2"><rect class="cls-1" x="65.94" y="1528.12" width="607.71" height="88.66"/></clipPath><clipPath id="clip-path-3"><rect class="cls-1" x="-24.36" y="1265.21" width="2374.06" height="551.26"/></clipPath><clipPath id="clip-path-4"><rect class="cls-1" x="-24.36" y="1254.63" width="2374.06" height="561.84"/></clipPath><clipPath id="clip-path-5"><rect class="cls-1" x="654.69" y="1545.44" width="84.67" height="48"/></clipPath><clipPath id="clip-path-6"><rect class="cls-1" x="158.4" y="1528.12" width="607.71" height="88.66"/></clipPath><clipPath id="clip-path-7"><rect class="cls-1" x="68.1" y="1265.21" width="2374.06" height="551.26"/></clipPath><clipPath id="clip-path-8"><rect class="cls-1" x="68.1" y="1254.63" width="2374.06" height="561.84"/></clipPath><clipPath id="clip-path-9"><rect class="cls-1" x="218.53" y="1545.44" width="84.67" height="48"/></clipPath><clipPath id="clip-path-10"><rect class="cls-1" x="-35.89" y="1531.36" width="607.71" height="88.66"/></clipPath><clipPath id="clip-path-11"><rect class="cls-1" x="-126.19" y="1268.45" width="2374.06" height="551.26"/></clipPath><clipPath id="clip-path-12"><rect class="cls-1" x="-126.19" y="1257.87" width="2374.06" height="561.84"/></clipPath><image id="image" width="8001" height="5610" xlink:href="../../solid visa thanks page-03.jpg"/></defs><title>work permits icon</title><g class="cls-2"><g class="cls-3"><g class="cls-4"><g class="cls-5"><use transform="translate(-24.36 -59.6) scale(0.3 0.33)" xlink:href="#image"/></g></g></g></g><g class="cls-6"><g class="cls-7"><g class="cls-8"><g class="cls-9"><use transform="translate(68.1 -59.6) scale(0.3 0.33)" xlink:href="#image"/></g></g></g></g><g class="cls-10"><g class="cls-11"><g class="cls-12"><g class="cls-13"><use transform="translate(-126.19 -56.36) scale(0.3 0.33)" xlink:href="#image"/></g></g></g></g><path class="cls-14" d="M44.79,5H13A3.91,3.91,0,0,0,9.07,8.92V63.33A3.91,3.91,0,0,0,13,67.25H54.9a3.91,3.91,0,0,0,3.92-3.92V19ZM34,14.92A7.08,7.08,0,1,1,26.86,22,7.08,7.08,0,0,1,34,14.92Zm0,18.5c10.71,0,12.88,12.5,12.88,12.5H21.06S23.23,33.42,34,33.42ZM49.28,59.33H18.61a3.17,3.17,0,0,1,0-6.33H49.28a3.17,3.17,0,1,1,0,6.33Z"/></svg>