<svg id="Layer_1" data-name="Layer 1" xmlns="http://www.w3.org/2000/svg" viewBox="0 0 152.34 165.33"><defs><style>.cls-1{fill:#ee4650;}.cls-2{fill:#fff;}.cls-3{fill:#045580;}</style></defs><title>years of exp.. icon</title><polygon class="cls-1" points="76.72 3.4 81.2 12.48 86.63 11.51 84.79 22.72 93.72 18.19 94.4 22.55 103.66 21.14 100.31 29.96 105.26 32.4 89.76 42.65 91.06 47.71 78.17 45.41 78.92 61.01 77.52 61.03 76.12 61.05 76.42 45.43 63.6 48.1 64.76 43 48.98 33.2 53.85 30.62 50.26 21.91 59.55 23.05 60.11 18.67 69.16 22.95 67 11.79 72.46 12.61 76.68 3.4 76.72 3.4"/><path class="cls-1" d="M107.11,75.74c-.86.44.79,6.53,1,7.57.85,4.41,1.76,8.81,2.67,13.21.33,1.61.67,3.22,1,4.83.06.29,0,1.48.46,1.41,1.09-.21,2.18-.43,3.27-.67.47-.11,3.14-.4,3-.91s-.23-1.06-.34-1.59l-5.28-25.25C111,74.8,109.05,75.29,107.11,75.74Z"/><path class="cls-1" d="M146.72,76.9h.05c-.27-1.23-.58-2.45-.91-3.66-.05-.19-.11-.37-.17-.56-.42-1.49-.9-3-1.42-4.43-.07-.2-.14-.41-.22-.61a68.69,68.69,0,0,0-8.64-16.41A69.11,69.11,0,0,0,30.16,43,68.55,68.55,0,0,0,19.85,56.33c13.81-21.5,44.4-33.2,69.65-29.16a65.91,65.91,0,0,1,49.13,37.54L124.22,69.4l-8.53,2.77c-1.83.6-1.9.3-1.48,2.31q3,14.38,6,28.78c.44,2.08.87,4.17,1.31,6.26l13.31-4.33,9-2.94c1.05-.34,3.79-.61,3.94-1.84A68.7,68.7,0,0,0,146.72,76.9ZM122.33,98.26a2.89,2.89,0,0,1,5.52,1.11C127.85,103.7,120.54,102.47,122.33,98.26Z"/><path class="cls-2" d="M52.78,77a7.8,7.8,0,0,0,.14-1c0-.25-.51-.26-.72-.3-1.79-.43-3.57-.88-5.36-1.3L41.71,98.85c-.18.85-1,2.44,0,2.67l3.28.73c.5.1,2.27.77,2.7.54s.61-2.91.75-3.57C50.2,91.93,51.71,84.39,52.78,77Z"/><path class="cls-2" d="M146.74,106.6c-6.47,24.72-31.92,45.33-57.18,49.32A65.84,65.84,0,0,1,24,126.07a65.09,65.09,0,0,1-9.06-24.13l23.3,7.58q3.24-15.43,6.46-30.87l.93-4.43c.15-.71.64-1.34-.1-1.58l-2.61-.85L24.21,65.71c-.35-.11-4-1.61-4.2-1.37l-3.53-1.17c-.56-.18-2,4.31-2.24,5a69.12,69.12,0,1,0,132.5,38.47ZM31.92,99.37c0-3.3,5-3.91,5.68-.58C38.44,102.89,31.92,103.3,31.92,99.37Z"/><path class="cls-1" d="M77.57,114.36c.57-2.81-2.56-5.06-4.8-3.21-1.27,1.06-2.39,2.32-3.57,3.48,1.91-3,8.81-9.93,3.19-12.85-2.63-1.37-5.07,2.26-6.52,4-1.23,1.49-2.74,2.81-4.1,4.18q1.71-2.27,3.41-4.55c.84-1.12,2.89-3.08,2.81-4.63-.13-2.79-4-3.11-5.8-1.84-2.08,1.49-3.64,3.6-5.59,5.25.88-1.35,2-2.55,2.79-4,1.31-2.4-2.39-4.07-4.23-3.06-2.06,1.14-5.08,2.89-3.9,5.57.69,1.3,2.71,3.52,4.29,2.24-.87,2.8,2.12,7.91,5.43,5.73-2.43,3.87,4.37,7,7.26,5-1.13,2,1.76,3.9,3.36,4.41,3.28.79,5.39-3.05,6-5.79C77.65,113.94,77.52,114.57,77.57,114.36Z"/><path class="cls-3" d="M81.24,115.7c-1-.61-1.9-1.29-2.83-2a10.41,10.41,0,0,1-1.74,4.74,21.1,21.1,0,0,0,3.48,1c1.57.18,3.42-.76,4.67-1.62C83.59,117.23,82.42,116.46,81.24,115.7Z"/><path class="cls-1" d="M104,77.51c-1.06-.1-1.51-.86-2.33-1.53A36.82,36.82,0,0,0,97.49,73a82,82,0,0,0-8.83-4.58C85.59,68,82,69.91,79.14,70.79c-2.63.8-6.8,1-8.46,3.52-1.6,3-4.1,5.21-6,7.92-1,1.4-1.67,2.51.12,3.59a8.14,8.14,0,0,0,4.65.91c5.09-.34,8-3.91,9.5-8.47a21.81,21.81,0,0,1-.39,2.4c2.19-.5,5-.51,6.75-2.14A10.66,10.66,0,0,0,87,75.21a21.19,21.19,0,0,1-.87,2.84,5.08,5.08,0,0,1-1.06,1.83c-.4.4,0,.53.28,1A50,50,0,0,0,92.14,88a68.89,68.89,0,0,0,10,7.76c2.61,1.56,5.35,2.88,8,4.35q-1.41-6.84-2.74-13.71-.54-2.79-1-5.58c-.15-.82-.29-1.63-.42-2.45-.2-1.19-.87-.79-2-.9Z"/><path class="cls-2" d="M107.68,100.65a77.51,77.51,0,0,1-18.5-13.29,26.27,26.27,0,0,1-3.47-3.83c-.15-.21-1.41-2.32-1.42-2.32-.37-.84-1.18-.21-2,0-1,.23-2.06.44-3.09.66a13.14,13.14,0,0,0-1.31.61,11.36,11.36,0,0,1-3.8,4.39C71.22,88.7,65.7,89,63.17,86.49c-2.25-2.21.79-5.36,2.25-7.08a41.64,41.64,0,0,0,4.4-5.68,6.22,6.22,0,0,1,1.25-1.59c1.6-1.36,3.81-1.59,5.79-2a47.84,47.84,0,0,0,4.88-1.26,29,29,0,0,0-5.55-1.63,7.13,7.13,0,0,0-5.09.52A61.09,61.09,0,0,0,60,73.93c-2,1.33-3.57,3.24-6.1,2.8-.27.2-.3,2-.36,2.37-.22,1.33-.46,2.65-.69,4-1,5.37-2,10.73-3.13,16.07,1.51.16,1.58-.33,2.68-1.26a17.17,17.17,0,0,1,3-2.12c2.2-1.14,6.18,1,4.82,3.69,1.47-1.53,3-2.9,5.23-2.61,1.88.25,5,2.86,3.1,4.91,2-2.89,5.51-1.66,6.53,1.33.92,2.68-.39,4.78-1.9,7,.64-.51.94-1.17,1.93-1a4.1,4.1,0,0,1,3.09,2.43c.34.82.06.86.93,1.35.66.38,1.3.81,2,1.2,1.13.67,2.24,1.36,3.38,2,1.45.81,3.13,1.81,4.86,1.81A5.86,5.86,0,0,0,93.7,115,45,45,0,0,1,85,109.65a33.55,33.55,0,0,1-4.67-3.8c2.81,1.42,5.47,3,8.13,4.71s6.41,4.88,9.73,3.13c.86-.45,3.81-2.54,3.48-3.86a30.75,30.75,0,0,1-6.07-3,52.82,52.82,0,0,1-9.43-6.92c4.3,1.64,7.94,4.73,12.07,6.73,2.11,1,4.18,2.27,6.37.84a8.22,8.22,0,0,0,2.34-2.25,5.53,5.53,0,0,0,.71-1.61c0-.12.14-1.89.23-.79A4.35,4.35,0,0,0,107.68,100.65Z"/></svg>